<svg width="14" height="16" viewBox="0 0 14 16" fill="none" xmlns="http://www.w3.org/2000/svg">
<g clip-path="url(#clip0_257_26224)">
<g clip-path="url(#clip1_257_26224)">
<path d="M0.293945 7.29377C-0.0966797 7.6844 -0.0966797 8.31877 0.293945 8.7094L5.29395 13.7094C5.68457 14.1 6.31895 14.1 6.70957 13.7094C7.1002 13.3188 7.1002 12.6844 6.70957 12.2938L3.4127 9.00002H13.0002C13.5533 9.00002 14.0002 8.55315 14.0002 8.00002C14.0002 7.4469 13.5533 7.00002 13.0002 7.00002H3.41582L6.70645 3.70627C7.09707 3.31565 7.09707 2.68127 6.70645 2.29065C6.31582 1.90002 5.68145 1.90002 5.29082 2.29065L0.29082 7.29065L0.293945 7.29377Z" fill="#4B5563"/>
</g>
</g>
<defs>
<clipPath id="clip0_257_26224">
<rect width="14" height="16" fill="white"/>
</clipPath>
<clipPath id="clip1_257_26224">
<path d="M0 0H14V16H0V0Z" fill="white"/>
</clipPath>
</defs>
</svg>
