<svg width="19" height="19" viewBox="0 0 19 19" fill="none" xmlns="http://www.w3.org/2000/svg">
<g clip-path="url(#clip0_596_3190)">
<path d="M18.7462 11.6814C19.9514 6.57481 16.7888 1.45807 11.6822 0.252813C6.57569 -0.952445 1.45895 2.21019 0.253692 7.31674C-0.951565 12.4233 2.21106 17.54 7.31762 18.7453C12.4242 19.9506 17.5409 16.7879 18.7462 11.6814Z" fill="#176AE6"/>
<path d="M12.9601 12.0254L13.3662 9.53804H10.4878V7.64135C10.4878 6.85807 10.6978 6.30107 11.8205 6.30107H13.4834V3.794C13.4834 3.794 12.428 3.5625 11.4388 3.5625C9.37323 3.5625 8.00627 4.92656 8.00627 7.24217V9.53804H5.51602V12.0254H8.00568V18.8823C8.49248 18.9594 8.99145 19 9.5003 19C9.83391 19 10.1635 18.9826 10.4884 18.949V12.0248H12.9601V12.0254Z" fill="white"/>
</g>
<defs>
<clipPath id="clip0_596_3190">
<rect width="19" height="19" fill="white"/>
</clipPath>
</defs>
</svg>
