<svg width="19" height="19" viewBox="0 0 19 19" fill="none" xmlns="http://www.w3.org/2000/svg">
<g clip-path="url(#clip0_596_3244)">
<path d="M18.7462 11.6814C19.9514 6.57481 16.7888 1.45807 11.6822 0.252813C6.57569 -0.952445 1.45895 2.21019 0.253692 7.31674C-0.951565 12.4233 2.21106 17.54 7.31762 18.7453C12.4242 19.9506 17.5409 16.7879 18.7462 11.6814Z" fill="#FF1100"/>
<path d="M15.3192 7.12527C15.3192 7.12527 15.2031 6.30718 14.8475 5.94687C14.3955 5.474 13.8896 5.47168 13.6575 5.44383C11.9963 5.32373 9.5032 5.32373 9.5032 5.32373H9.49739C9.49739 5.32373 7.00425 5.32373 5.34312 5.44383C5.11104 5.47168 4.6051 5.47342 4.15312 5.94687C3.79687 6.30718 3.68141 7.12527 3.68141 7.12527C3.68141 7.12527 3.56305 8.08609 3.56305 9.04749V9.94855C3.56305 10.9094 3.68141 11.8702 3.68141 11.8702C3.68141 11.8702 3.79745 12.6883 4.1537 13.0486C4.60568 13.522 5.19865 13.507 5.46264 13.5563C6.41302 13.6474 9.5003 13.6758 9.5003 13.6758C9.5003 13.6758 11.9952 13.6723 13.6575 13.5522C13.8896 13.5244 14.3961 13.522 14.8475 13.0492C15.2037 12.6883 15.3198 11.8708 15.3198 11.8708C15.3198 11.8708 15.4381 10.9094 15.4381 9.94855V9.04749C15.4381 8.08667 15.3198 7.12527 15.3198 7.12527M8.12405 11.196V7.54708L11.632 9.37763L8.12405 11.196Z" fill="white"/>
</g>
<defs>
<clipPath id="clip0_596_3244">
<rect width="19" height="19" fill="white"/>
</clipPath>
</defs>
</svg>
