<svg width="48" height="48" viewBox="0 0 48 48" fill="none" xmlns="http://www.w3.org/2000/svg">
<path d="M8.23828 6.18945H15.2383C15.7232 6.18948 16.103 6.34058 16.4121 6.63184C16.7385 6.93905 16.9779 7.35134 17.1162 7.89355V7.89453L18.459 13.9697C18.5337 14.4878 18.5198 14.9279 18.4316 15.2988C18.3469 15.6553 18.1736 15.9572 17.9053 16.2129L18.25 16.5752L17.9043 16.2129L17.8984 16.2188L12.8623 21.1855L12.583 21.4609L12.7832 21.7979C13.6272 23.2162 14.5232 24.543 15.4707 25.7783C16.4174 27.0127 17.4692 28.1871 18.624 29.3018V29.3027C19.8418 30.5621 21.1145 31.7031 22.4414 32.7246C23.7701 33.7476 25.1577 34.6418 26.6035 35.4072L26.9336 35.582L27.1953 35.3145L32.0049 30.3789L32.0146 30.3691C32.3073 30.0514 32.6272 29.8329 32.9756 29.7021L33.126 29.6514C33.552 29.525 33.9775 29.5038 34.4092 29.5869L40.083 30.8428C40.552 30.9723 40.9285 31.1919 41.2256 31.499L41.3477 31.6367C41.6571 32.0104 41.8115 32.438 41.8115 32.9404V39.7627C41.8115 40.3619 41.6143 40.835 41.2266 41.2188C40.836 41.6053 40.3631 41.7998 39.7744 41.7998C35.9416 41.7998 32.0293 40.8787 28.0342 39.0225C24.0398 37.1667 20.3301 34.5293 16.9062 31.1055C13.4828 27.682 10.8441 23.9711 8.98438 19.9727C7.12399 15.9732 6.20117 12.0629 6.20117 8.23828C6.2012 7.71421 6.35064 7.28361 6.64746 6.92383L6.78418 6.77441C7.1709 6.38557 7.64411 6.18945 8.23828 6.18945ZM8.63184 9.12988C8.69212 10.519 8.91062 11.9829 9.28418 13.5195C9.65925 15.0623 10.2492 16.7744 11.0498 18.6533L11.3398 19.332L11.8623 18.8115L15.9004 14.7949L16.0938 14.6025L16.0371 14.3359L14.8994 9.00391L14.8145 8.6084H8.60938L8.63184 9.12988ZM39.3926 33.1621L38.9941 33.0791L34.0234 32.0508L33.751 31.9951L33.5596 32.1953L29.6338 36.3096L29.1523 36.8145L29.7852 37.1084C31.1435 37.7403 32.6194 38.2554 34.2109 38.6543C35.8038 39.0534 37.3561 39.2917 38.8672 39.3682L39.3926 39.3945V33.1621Z" fill="black" stroke="black"/>
</svg>
