<svg width="98" height="62" viewBox="0 0 98 62" fill="none" xmlns="http://www.w3.org/2000/svg">
<g clip-path="url(#clip0_600_4287)">
<path d="M26.9053 10.8565L19.055 5.43995L5.47435 24.8745L13.3246 30.3841L26.9286 10.8565H26.9053ZM42.0467 46.3781H42.1632V46.4943L42.3728 46.7035L42.4893 46.8198C42.4893 46.8198 42.6058 47.029 42.699 47.029V47.1452H42.8154V47.2615L42.9319 47.3777V47.4939H43.0484V47.6102V47.7264H43.1649V47.8427V47.9589H43.2813V48.0751V48.1914L43.3978 48.3076V48.4238V48.5401H43.5143V48.6563V48.7725L43.6307 48.8888V49.005V49.1212V49.2375V49.3537H43.7472V49.4699V49.5862V49.7024V49.8187V49.9349V50.0511V50.1674V50.2836V50.3998V50.5161V50.6323V50.7485V50.8648V50.981V51.0972V51.2135V51.3297V51.5389H43.6307V51.6552V51.8876L43.5143 52.0969C43.3978 52.5386 43.1882 53.0965 42.862 53.5382C42.862 53.5382 42.6291 53.8636 42.5359 53.9799C42.5359 53.9799 42.4194 54.0961 42.4194 54.1891H42.303V54.3053H42.1865V54.4216H42.07V54.5378H41.9535L46.0534 57.3972C46.3795 57.6064 46.8221 57.7227 47.1482 57.6064C47.5908 57.6064 47.9169 57.3972 48.1499 57.0485L48.709 56.2813C48.9186 55.9559 48.9186 55.5142 48.9186 55.1887C48.8021 54.747 48.5925 54.4216 48.2664 54.1891L46.9386 53.1895L49.4777 49.4467L50.9219 50.4463C51.1549 50.6556 51.3645 50.7718 51.5742 51.0043C51.7838 51.2135 52.1332 51.4459 52.4594 51.6552C53.6707 52.4223 55.3246 53.422 56.1166 52.3061L56.6757 51.5389C56.8853 51.2135 57.0018 50.7718 56.8853 50.4463C56.7689 50.0046 56.5592 49.6792 56.2331 49.4467L54.9053 48.4471L55.3479 47.7962C55.2314 47.4707 55.3479 47.029 55.5575 46.5873C55.8837 45.9364 56.4427 45.4947 57.0018 45.3785L57.4444 44.7275L58.8887 45.7272C59.3312 46.0526 60.2164 46.2851 60.9852 46.2851C61.4278 46.2851 61.8704 46.2851 61.9868 46.1689C62.1033 46.0526 62.1033 45.9596 62.1965 45.9596L62.5226 45.4017C62.8487 44.96 62.9652 44.5183 62.9652 44.1929C62.8487 43.9604 62.7322 43.6349 62.5226 43.5419L61.0783 42.5423L63.7339 38.7995L65.0617 39.7992C65.3878 40.0084 65.8304 40.1246 66.273 40.0084C66.5991 40.0084 66.9253 39.7992 67.1582 39.5667V39.4504C67.1582 39.4504 67.2747 39.4505 67.2747 39.3342V39.218V39.0088V38.7995C67.2747 38.5903 67.1582 38.3578 67.065 38.1486C66.9486 37.9394 66.8321 37.8232 66.6224 37.7069L64.852 36.3818L47.4976 23.8052C46.0534 23.4797 43.3046 24.6885 40.6491 26.0136C38.669 27.0133 36.5492 27.9896 34.6857 28.3383C31.2614 29.1055 28.6058 28.2221 27.6041 23.7122L27.4877 23.5959C26.9286 20.9458 27.4877 19.5044 28.699 18.6211C29.258 17.5284 30.2364 16.9705 31.3545 16.4126L29.3745 15.5292L19.1016 30.3143L21.0817 33.7317L21.1981 33.6154H21.3146V33.4992H21.4311L21.5476 33.383L21.664 33.2667H21.8737V33.1505H22.1066L22.2231 33.0343H22.3396L22.5492 32.918H22.6657L22.7822 32.8018H23.1083V32.6855H23.7605V32.5693H24.8554L24.9719 32.6855H25.5309V32.8018H25.9735V32.918H26.2996V33.0343H26.5093V33.1505H26.7422L26.8587 33.2667H26.9752V33.383H27.1848V33.4992H27.3013L27.4178 33.6154H27.5342V33.7317H27.6507V33.8479H27.7672L27.8837 33.9641C27.8837 33.9641 28.0001 34.0804 28.0933 34.0804V34.1966H28.2098V34.3128H28.3263V34.4291H28.4427V34.5453L28.5592 34.6616H28.6757V34.5453H28.7921L28.9086 34.3361H29.0251L29.3512 34.0106H29.4677C29.4677 34.0106 29.5842 33.8944 29.6773 33.8944V33.7782H29.887V33.6619H30.0035L30.1199 33.5457H30.2364L30.4694 33.4295C30.4694 33.4295 30.679 33.3132 30.7955 33.3132H31.0051V33.197H31.4477V33.0807H33.4278L33.5442 33.197H33.8704L33.9868 33.3132H34.3129V33.4295H34.5226V33.5457H34.7322L34.8487 33.6619H34.9652L35.0817 33.7782H35.1981V33.8944H35.4078V34.0106H35.5243V34.1269H35.6407L35.7572 34.2431L35.8737 34.3593H35.9902C35.9902 34.3593 36.1066 34.4756 36.2231 34.5686V34.6848H36.3396V34.801H36.456L36.5725 34.9173V35.0335H36.689V35.1497H36.8055V35.266H36.9219V35.3822V35.4984H37.0384V35.6147H37.1549V35.7309V35.8472H37.2713V35.9634L37.3878 36.0796V36.1959V36.3121H37.5043V36.4283L37.6208 36.5446V36.6608C37.6208 36.6608 37.6208 36.87 37.7372 36.87V37.0792V37.1955L37.8537 37.3117V37.6372V37.7534L37.9702 37.8697V37.9859V38.1021V38.2184V38.3346V38.4508V38.5671V38.6833V38.7995V39.0088V39.125V39.2412V39.3575V39.4737C37.9702 39.4737 37.8537 39.5899 37.8537 39.6829V39.8921V40.0084H37.7372V40.1246H37.8537L37.9702 40.2409H38.0867V40.3571H38.2963V40.4733H38.4128V40.5896H38.6224V40.7058H38.7389V40.822H38.8554L39.065 41.0313L39.1815 41.1475L39.298 41.2637V41.38H39.4144L39.5309 41.4962V41.6124H39.6474V41.7287L39.7639 41.8449V41.9611H39.8803V42.0774L39.9968 42.1936V42.3098H40.1133V42.4261L40.2298 42.5423V42.6586L40.3462 42.7748V42.891L40.4627 43.0073V43.1235L40.5792 43.2397V43.356V43.4722V43.5884L40.6956 43.7047V43.8209V43.9371V44.0534V44.1696H40.8121V44.2858V44.4021V44.5183V44.6346V44.7508V44.867V44.9833V45.0995V45.2157V45.332V45.4482V45.5644V45.6807V45.7969V45.9131V46.0294V46.1456H41.0451V46.2618H41.2547V46.3781H41.4644V46.4943H41.5808V46.6106H41.7905V46.7268H41.907V46.843H42.0234L42.1399 46.9593H42.2564V47.0755H42.3728V47.1917L42.0467 46.3781ZM38.9486 57.7459L38.8321 57.8621C37.8304 58.8618 36.5026 59.5127 35.1748 59.5127C33.8471 59.6289 32.5193 59.1872 31.4244 58.3038C31.308 58.1876 31.1915 58.1876 31.1915 58.0946C30.4228 57.3275 29.8637 56.4441 29.654 55.3282C28.5592 55.212 27.4411 54.7703 26.5559 54.0031L26.4394 53.8869C25.6707 53.236 25.1116 52.2364 24.902 51.2367C23.8071 51.0275 22.8055 50.6788 21.9203 49.7954H21.8038C21.0351 49.0283 20.476 48.0286 20.2664 47.029C19.1715 46.9128 18.0534 46.4711 17.1682 45.7039V45.5877C16.0733 44.5881 15.5143 43.263 15.3978 41.9379C15.2813 40.4966 15.7239 39.1715 16.7256 38.0789C17.0517 37.6372 17.4943 37.3117 17.8204 36.87L16.1665 34.1036L15.7239 34.7545C14.9552 35.7542 13.511 36.0796 12.5093 35.3125L0.931917 27.2922C-0.0697469 26.5251 -0.279397 25.2 0.372849 24.0841L16.6324 0.930018C17.4011 -0.0696074 18.7289 -0.278831 19.8471 0.372087L31.3545 8.53182C32.3562 9.18274 32.6823 10.5078 32.0068 11.5074L36.9918 13.7159L43.7239 9.29897C44.1665 9.08975 44.6091 8.97351 45.1682 8.97351L65.7372 11.0658C65.5276 10.0661 65.8537 9.08975 66.6224 8.53182L78.1998 0.372087C79.2015 -0.278831 80.6224 -0.0696074 81.298 0.930018L97.5575 24.1074C98.3263 25.2 98.1166 26.5251 96.9985 27.3155L85.491 35.359C84.3961 36.1261 83.0684 35.8007 82.2763 34.801L81.7173 34.0339L70.3263 42.6353C70.3263 42.6353 70.1166 42.7515 70.0001 42.8445C69.2314 43.4954 68.3462 43.9371 67.461 44.1696C67.461 45.3785 67.0184 46.7035 66.2497 47.8194L65.6907 48.4703C64.689 49.9116 63.1515 50.4463 61.3812 50.5626C61.3812 51.7714 61.055 52.8873 60.2863 53.9799L59.8437 54.6308C57.8637 57.4902 55.4178 57.7227 53.2048 56.9555C52.9951 57.5134 52.7622 58.1644 52.3196 58.7223L51.877 59.3732C50.8753 60.8145 49.4544 61.5817 47.8936 61.9071C46.3562 62.1164 44.7955 61.7909 43.3512 60.9075L38.9253 57.6994L38.9486 57.7459ZM38.0634 49.4699C38.0634 49.4699 37.8537 49.5862 37.7372 49.6792L34.3129 53.5382H34.1965C34.08 53.7707 33.9868 53.9799 34.08 54.1891C34.08 54.3983 34.08 54.6308 34.2897 54.747L34.4061 54.8633C34.4061 54.8633 34.7322 54.9795 34.9652 54.9795C35.1981 54.9795 35.4078 54.8633 35.5243 54.7703L38.506 51.353L38.9486 50.9113L39.065 50.795L39.1815 50.6788V50.5626V50.4463V50.3301V50.2139V50.0976V49.9814V49.8652H39.065V49.7489L38.9486 49.6327V49.5164H38.7389V49.4002H38.0867L38.0634 49.4699ZM35.7572 43.8442H35.6407V43.7279H35.5243L35.4078 43.6117H34.7555V43.7279H34.6391V43.8442H34.5226V43.9604H34.4061L29.5376 49.4699C29.5376 49.4699 29.3279 49.7954 29.3279 50.0279C29.3279 50.2604 29.4444 50.4696 29.5376 50.5858L29.654 50.702C29.887 50.8183 30.0966 50.9113 30.2131 50.8183C30.4228 50.8183 30.6557 50.702 30.8654 50.6091L34.2897 46.75V46.6338L35.7339 45.0995H35.8504V44.9833V44.867H35.9669V44.7508V44.6346V44.5183V44.4021V44.2858V44.1696V44.0534H35.8504V43.9371H35.7339V43.8209L35.7572 43.8442ZM31.7738 37.5442L31.6574 37.6604L28.3496 41.3102V41.4265L24.9253 45.1692L24.8088 45.2855C24.6923 45.4947 24.6923 45.7272 24.6923 45.8434C24.6923 46.0526 24.8088 46.2851 24.902 46.4013L25.0184 46.5176C25.0184 46.5176 25.3446 46.7268 25.5775 46.7268C25.8105 46.7268 26.0201 46.6106 26.1366 46.4013L26.3695 46.2851L31.0051 40.9848L31.1216 40.8685L33.0085 38.66H33.1249V38.5438V38.4276H33.2414V38.3113V38.1951V38.0789V37.9626V37.8464H33.1249V37.7302V37.6139H33.0085V37.4977L32.892 37.3815H32.6823V37.2652H32.0301V37.3815H31.8204V37.4977L31.7738 37.5442ZM24.9253 37.2187L24.8088 37.1025L24.6923 36.9863H24.4594V36.87H24.0168V36.9863H23.8071V37.1025H23.6907V37.2187L20.1499 41.0777C20.1499 41.0777 19.9402 41.5194 19.9402 41.7287C19.9402 41.8449 20.0567 42.0541 20.1499 42.2866H20.2664C20.4993 42.4028 20.709 42.4958 20.9186 42.4958C21.0351 42.4958 21.2447 42.3796 21.4777 42.1704L21.5941 42.0541L21.7106 41.9379L21.8271 41.8217L24.9253 38.2881H25.0417V38.1719V38.0556H25.1582V37.9394V37.8232V37.7069V37.5907V37.4744V37.3582H25.0417V37.242H24.9253V37.1257V37.2187ZM78.9685 5.4632L71.1183 10.8798L84.7223 30.4073L92.5725 24.8978L78.9685 5.48645V5.4632ZM68.1366 15.8314L45.471 13.6229L36.5259 19.365C35.4311 20.1321 34.3129 20.5738 33.4278 20.8993C32.4261 21.341 31.7738 21.6664 31.9835 22.4336V22.5498C32.1931 23.6424 32.8687 23.8749 33.7539 23.6424C35.0817 23.317 36.852 22.5498 38.7389 21.6664C42.3961 19.8996 46.1466 18.1329 49.3612 19.3417C49.5941 19.458 49.8038 19.5509 49.9203 19.6672C56.3263 24.2933 62.7322 29.152 69.2547 33.6852C70.0234 34.2431 70.5825 34.894 71.0251 35.6612V35.7774H71.1416V35.8936H71.258V36.0099V36.1261L71.3745 36.2424L78.5492 30.7328L68.1599 15.8314H68.1366Z" fill="#1D3753"/>
</g>
<defs>
<clipPath id="clip0_600_4287">
<rect width="98" height="62" fill="white"/>
</clipPath>
</defs>
</svg>
