<svg width="49" height="48" viewBox="0 0 49 48" fill="none" xmlns="http://www.w3.org/2000/svg">
<path d="M7.44043 8.18945H41.2256C42.0106 8.18945 42.6856 8.47154 43.2734 9.05957V9.06055C43.8616 9.64841 44.1445 10.3233 44.1445 11.1084V36.8926C44.1445 37.5762 43.9284 38.1763 43.4805 38.708L43.2744 38.9316C42.6867 39.5177 42.0113 39.7998 41.2256 39.7998H7.44043C6.6588 39.7997 5.98686 39.5184 5.40137 38.9326C4.8155 38.347 4.53418 37.6744 4.53418 36.8926V11.1084L4.54785 10.8184C4.60977 10.1549 4.88879 9.57376 5.40137 9.05957H5.40234C5.98798 8.47166 6.65936 8.18951 7.44043 8.18945ZM6.94043 11.2139V37.3926H41.7256V13.2051L40.9512 13.7158L25.0029 24.2148C24.8664 24.2867 24.7422 24.3445 24.6299 24.3887C24.5629 24.415 24.4674 24.4355 24.333 24.4355C24.1987 24.4355 24.1031 24.415 24.0361 24.3887C23.9227 24.3441 23.7973 24.2858 23.6592 24.2129L7.94043 13.8633V11.8691L24.0596 22.4258L24.333 22.6055L24.6064 22.4268L41.2988 11.5264L42.7061 10.6084H6.01465L6.94043 11.2139Z" fill="black" stroke="black"/>
</svg>
