<svg width="17" height="20" viewBox="0 0 17 20" fill="none" xmlns="http://www.w3.org/2000/svg">
<g clip-path="url(#clip0_257_26494)">
<path d="M16.7235 2.88962C11.2802 2.79363 8.73046 0.116191 8.70537 0.0909321C8.65266 0.0328366 8.57738 0.00252589 8.49958 0C8.42178 0 8.349 0.0328366 8.29379 0.0884062C8.2687 0.116191 5.71895 2.79363 0.273126 2.88962C0.12004 2.89214 -0.00292969 3.01844 -0.00292969 3.17252V9.94948C-0.00292969 9.94948 -0.00292969 9.95706 -0.00292969 9.96211C-0.000420092 10.0354 0.0874158 11.7681 1.16654 13.8798C2.16034 15.8222 4.22323 18.4592 8.4017 19.9848C8.43182 19.9949 8.46445 20.0025 8.49707 20.0025C8.52969 20.0025 8.56232 19.9975 8.59243 19.9848C12.7709 18.4617 14.8338 15.8247 15.8276 13.8798C16.9067 11.7681 16.9946 10.0354 16.9971 9.96211C16.9971 9.95706 16.9971 9.95453 16.9971 9.94948V3.17252C16.9971 3.01844 16.8741 2.89467 16.721 2.88962H16.7235ZM16.4399 9.94443C16.4349 10.048 16.3295 11.6747 15.3332 13.6221C14.3921 15.461 12.4447 17.9515 8.50209 19.419C4.57206 17.9566 2.62462 15.4761 1.68101 13.6449C0.677171 11.6923 0.566748 10.0455 0.561729 9.94191V3.44784C5.2622 3.29124 7.79438 1.32104 8.50209 0.674413C9.20979 1.32104 11.742 3.29124 16.4424 3.44784V9.94443H16.4399Z" fill="#141B23"/>
<path d="M4.77624 9.03006C4.72354 8.97701 4.65327 8.9467 4.57798 8.9467C4.50269 8.9467 4.43242 8.97701 4.37972 9.03006L3.19519 10.2273C3.08728 10.3385 3.08728 10.5153 3.19519 10.6239L6.73623 14.2056C6.78893 14.2586 6.8592 14.289 6.93449 14.289C7.00978 14.289 7.08005 14.2586 7.13275 14.2056L13.9011 7.35792C14.009 7.24678 14.009 7.06996 13.9011 6.96135L12.7166 5.76408C12.6639 5.71104 12.5936 5.68073 12.5183 5.68073C12.4431 5.68073 12.3728 5.71104 12.3201 5.76408L6.93449 11.2124L4.77624 9.03006ZM12.5183 6.36272L13.3064 7.1609L6.93449 13.6095L3.78997 10.4269L4.57798 9.62869L6.73623 11.8111C6.78893 11.8641 6.8592 11.8944 6.93449 11.8944C7.00978 11.8944 7.08005 11.8641 7.13275 11.8111L12.5183 6.36272Z" fill="black"/>
<path d="M8.1566 12.6008L4.88965 9.31259L3.74151 10.4682L7.00846 13.7563L8.1566 12.6008Z" fill="black"/>
<path d="M8.04572 12.8809L13.6338 7.25656L12.4857 6.10097L6.89759 11.7253L8.04572 12.8809Z" fill="black"/>
</g>
<defs>
<clipPath id="clip0_257_26494">
<rect width="17" height="20" fill="white"/>
</clipPath>
</defs>
</svg>
