<svg width="137" height="67" viewBox="0 0 137 67" fill="none" xmlns="http://www.w3.org/2000/svg">
<g clip-path="url(#clip0_628_4778)">
<path d="M24.1496 40.1574C18.1721 40.1574 13.3291 46.0358 13.3291 53.2911C13.3291 60.5464 18.1721 66.4248 24.1496 66.4248C30.127 66.4248 34.97 60.5422 34.97 53.2911C34.97 46.04 30.1235 40.1574 24.1496 40.1574ZM24.1496 61.7508C20.3057 61.7508 17.1799 57.9568 17.1799 53.2911C17.1799 48.6255 20.3057 44.8315 24.1496 44.8315C27.9934 44.8315 31.1192 48.6255 31.1192 53.2911C31.1192 57.9568 27.9934 61.7508 24.1496 61.7508Z" fill="#D9D9D9"/>
<path d="M113.561 40.1574C107.584 40.1574 102.741 46.0358 102.741 53.2911C102.741 60.5464 107.584 66.4248 113.561 66.4248C119.539 66.4248 124.382 60.5422 124.382 53.2911C124.382 46.04 119.535 40.1574 113.561 40.1574ZM113.561 61.7508C109.718 61.7508 106.592 57.9568 106.592 53.2911C106.592 48.6255 109.718 44.8315 113.561 44.8315C117.405 44.8315 120.531 48.6255 120.531 53.2911C120.531 57.9568 117.402 61.7508 113.561 61.7508Z" fill="#D9D9D9"/>
<path d="M132.58 27.9248C127.626 14.231 122.536 9.38854 118.238 6.87465L119.889 4.87448C119.889 4.87448 121.676 3.20277 119.751 3.20277C117.825 3.20277 74.6335 -3.14302 64.4514 3.87229L34.9701 21.4022C34.9701 21.4022 13.5546 24.4003 4.34043 32.9231C-1.4358 38.2667 1.58935 56.7987 1.58935 56.7987H11.7368C11.5217 55.6702 11.4037 54.4996 11.4037 53.2911C11.4037 44.7599 17.121 37.8203 24.1531 37.8203C31.1852 37.8203 36.8989 44.7599 36.8989 53.2911C36.8989 54.4954 36.781 55.6702 36.5659 56.7987H100.774L101.142 56.7482C100.934 55.6365 100.816 54.4828 100.816 53.2953C100.816 44.7641 106.533 37.8246 113.565 37.8246C120.597 37.8246 126.311 44.7641 126.311 53.2953H133.235C133.235 53.2953 135.161 53.2195 135.574 51.792C137.35 45.6273 135.053 34.7717 132.58 27.929V27.9248ZM5.48527 53.2911C4.15657 54.0701 3.53905 52.3647 3.53905 52.3647C3.53905 52.3647 2.46012 45.2778 4.20514 43.1639C6.31441 40.6037 10.0265 39.9931 10.0265 40.6037C10.0265 41.2143 6.62664 52.6216 5.48527 53.2953V53.2911ZM19.9311 32.1441C19.9311 32.1441 12.0455 36.1528 9.6622 37.0413C7.27885 37.934 4.5243 38.3804 3.97617 38.1572V37.0413C6.96315 31.8577 17.1834 29.9207 19.9311 30.1397C22.6821 30.3629 19.9311 32.1441 19.9311 32.1441ZM109.298 16.8755C109.228 17.6082 105.447 20.2357 98.2935 21.0695C91.14 21.9075 42.7203 27.9164 42.7203 27.9164C42.7203 27.9164 37.7697 27.2468 35.7055 26.0804C35.7055 26.0804 56.7498 6.0451 78.7584 5.87667C78.7584 5.87667 100.08 5.20714 104.344 9.38432C108.611 13.5531 109.367 16.147 109.298 16.8755ZM129.357 30.005C123.053 28.687 118.165 24.5982 118.165 24.5982C118.165 24.5982 115.705 22.6191 117.69 22.1812C119.705 21.7348 126.127 22.1812 126.127 22.1812C126.127 22.1812 127.64 22.4591 128.604 24.4045C129.496 26.211 130.942 29.4702 130.942 29.4702C130.942 29.4702 131.542 30.4597 129.357 30.0008V30.005Z" fill="#D9D9D9"/>
</g>
<defs>
<clipPath id="clip0_628_4778">
<rect width="135.403" height="65.858" fill="white" transform="translate(0.79834 0.570984)"/>
</clipPath>
</defs>
</svg>
