<svg width="70" height="70" viewBox="0 0 70 70" fill="none" xmlns="http://www.w3.org/2000/svg">
<path d="M70 35C70 54.33 54.33 70 35 70C15.67 70 0 54.33 0 35C0 15.67 15.67 0 35 0C54.33 0 70 15.67 70 35Z" fill="#D9D9D9"/>
<path fill-rule="evenodd" clip-rule="evenodd" d="M33.9605 32.9396C32.6505 33.0795 31.8306 33.5477 30.9024 34.3213C30.5693 34.599 30.1785 35.1012 29.9105 35.5555C29.6493 35.9981 29.1002 36.825 28.7753 37.1949L27.4111 38.6015C27.359 38.6479 27.335 38.6826 27.2843 38.7276C27.2212 38.7844 27.1869 38.7982 27.1198 38.8557C26.9895 38.9679 26.9292 39.0171 26.8037 39.121C26.121 39.6889 25.3415 40.5768 24.9097 41.6801C24.4133 42.9475 24.4565 44.2032 25.055 45.3571C25.5218 46.2561 26.3801 46.9819 27.4255 47.4335C28.5326 47.9113 29.9454 48.0589 31.2596 47.8767C32.6704 47.6814 33.4937 47.0733 35.0628 47.2714C35.7072 47.3524 36.2248 47.581 36.8177 47.7375C39.7174 48.5042 43.3795 47.6218 44.2514 44.6091C44.7087 43.0293 44.1157 41.4751 43.2622 40.3185C42.4787 39.2567 41.8069 38.9651 40.95 38.1846C39.132 36.5286 39.5241 35.1995 37.5087 33.8275C36.6018 33.2104 35.326 32.7935 33.9605 32.9396Z" fill="#2A2829"/>
<path fill-rule="evenodd" clip-rule="evenodd" d="M30.9854 21.0492C28.9953 21.3664 26.8956 24.01 26.2882 25.9977C25.4396 28.7737 26.9326 31.7802 29.0049 32.4188C30.9703 33.0241 32.6683 31.5302 33.3223 29.7959C33.5588 29.1698 33.711 28.5333 33.748 27.804C33.8152 26.4645 33.6959 24.6153 33.3826 23.3818C33.0776 22.1816 32.451 20.8158 30.9854 21.0492Z" fill="#2A2829"/>
<path fill-rule="evenodd" clip-rule="evenodd" d="M37.6225 21.0312C36.4064 21.2701 35.9451 22.6144 35.6853 23.9345C35.4488 25.1362 35.2945 27.189 35.4652 28.417C35.7271 30.2987 36.9137 32.1286 38.6172 32.4825C41.7973 33.1432 44.0136 28.8173 42.694 25.4963C42.3772 24.6984 41.8748 23.8708 41.3558 23.2274L40.7855 22.595C40.0904 21.8754 38.7804 20.804 37.6225 21.0312Z" fill="#2A2829"/>
<path fill-rule="evenodd" clip-rule="evenodd" d="M46.0022 28.9641C44.9294 29.1116 44.089 30.2073 43.6029 30.8694C43.1107 31.5406 42.4191 32.7893 42.1154 33.6959C41.724 34.8643 41.6636 36.2204 42.188 37.3209C43.0086 39.0427 44.7738 39.4943 46.4711 38.517C46.7337 38.3654 46.8667 38.2518 47.0881 38.0793C47.2389 37.9616 47.2334 37.963 47.3692 37.8141C47.4651 37.7088 47.5556 37.6638 47.6482 37.5467C48.3865 36.6131 48.8375 35.8519 48.9678 34.5409C49.0912 33.3004 48.8355 31.8896 48.3769 30.8847C47.9944 30.0466 47.2211 28.7965 46.0009 28.9648" fill="#2A2829"/>
<path fill-rule="evenodd" clip-rule="evenodd" d="M22.6303 28.5797C20.5491 28.8561 18.823 33.8988 21.0248 36.7759C21.1798 36.9781 21.6089 37.4878 21.781 37.6229C21.8858 37.7046 21.9757 37.7843 22.0833 37.8674C23.7724 39.1778 26.0661 38.9014 26.9052 36.6768C27.346 35.5084 27.2075 34.1447 26.7722 33.0386C26.1676 31.5025 24.4579 28.3366 22.6303 28.5797Z" fill="#2A2829"/>
<path fill-rule="evenodd" clip-rule="evenodd" d="M31.1519 22.1172C29.5382 22.3748 27.7641 24.8328 27.3103 26.317C26.9854 27.3802 27.0745 28.5534 27.5263 29.5653C27.867 30.3285 28.4942 31.1312 29.3168 31.3847C30.6954 31.8093 31.8676 30.6166 32.3221 29.4108C32.5271 28.8678 32.6498 28.3318 32.6786 27.7493C32.741 26.513 32.6491 24.8473 32.3454 23.6512C32.2981 23.4642 32.2433 23.2786 32.1775 23.0979C32.002 22.6158 31.7525 22.0216 31.1519 22.1172ZM30.9854 21.0492C28.9953 21.3664 26.8956 24.01 26.2882 25.9977C25.4396 28.7737 26.9326 31.7802 29.0049 32.4188C30.9703 33.0241 32.6683 31.5302 33.3223 29.7959C33.5588 29.1698 33.711 28.5333 33.748 27.804C33.8152 26.4645 33.6959 24.6153 33.3826 23.3818C33.0776 22.1816 32.451 20.8158 30.9854 21.0492Z" fill="#2A2829"/>
<path fill-rule="evenodd" clip-rule="evenodd" d="M40.5442 23.9324L40.0074 23.3382C39.5721 22.8915 38.4959 21.9613 37.8261 22.0929C37.1241 22.2307 36.8499 23.5605 36.7348 24.1458C36.5072 25.3024 36.3632 27.1038 36.525 28.2667C36.6991 29.5168 37.4971 31.1465 38.8331 31.4242C39.2184 31.5038 39.6002 31.4796 39.9677 31.3349C40.8335 30.9948 41.4312 30.0923 41.7301 29.2398C42.103 28.1759 42.1202 26.9528 41.7013 25.8994C41.4292 25.2151 41.0028 24.5066 40.5442 23.9324ZM37.6225 21.0312C36.4064 21.2701 35.9451 22.6144 35.6853 23.9345C35.4488 25.1362 35.2945 27.189 35.4652 28.417C35.7271 30.2987 36.9137 32.1286 38.6172 32.4825C41.7973 33.1432 44.0136 28.8173 42.694 25.4963C42.3772 24.6984 41.8748 23.8708 41.3558 23.2274L40.7855 22.595C40.0904 21.8754 38.7804 20.804 37.6225 21.0312Z" fill="#2A2829"/>
<path fill-rule="evenodd" clip-rule="evenodd" d="M46.5013 37.1706C46.5287 37.1422 46.5555 37.1111 46.5822 37.0813C46.6638 36.9919 46.7426 36.9289 46.8283 36.8513C47.4583 36.0535 47.8003 35.4759 47.9039 34.4321C48.0012 33.4493 47.8141 32.2304 47.4062 31.3362C47.2218 30.9318 46.7131 29.9566 46.1469 30.0342C45.5053 30.1228 44.8156 31.0308 44.4626 31.5122C43.9752 32.1757 43.3925 33.2561 43.1293 34.0415C42.8365 34.9156 42.7474 36.0002 43.1526 36.8507C43.7263 38.0544 44.8465 38.2068 45.9419 37.5765C46.125 37.4712 46.2689 37.3521 46.4348 37.2226C46.4567 37.2053 46.48 37.1886 46.5013 37.1706ZM46.0022 28.9641C44.9294 29.1116 44.089 30.2073 43.6029 30.8694C43.1107 31.5406 42.4191 32.7893 42.1154 33.6959C41.724 34.8643 41.6636 36.2204 42.188 37.3209C43.0086 39.0427 44.7738 39.4943 46.4711 38.517C46.7337 38.3654 46.8667 38.2518 47.0881 38.0793C47.2389 37.9616 47.2334 37.963 47.3692 37.8141C47.4651 37.7088 47.5556 37.6638 47.6482 37.5467C48.3865 36.6131 48.8375 35.8519 48.9678 34.5409C49.0912 33.3004 48.8355 31.8896 48.3769 30.8847C47.9944 30.0466 47.2211 28.7965 46.0009 28.9648L46.0022 28.9641Z" fill="#2A2829"/>
<path fill-rule="evenodd" clip-rule="evenodd" d="M22.4473 36.7766C22.5439 36.8534 22.6379 36.9345 22.7352 37.01C23.9047 37.9172 25.3443 37.7794 25.905 36.2917C26.2423 35.3976 26.1203 34.3095 25.7775 33.4383C25.4807 32.6847 25.0728 31.9056 24.6224 31.2351C24.3194 30.7842 23.4091 29.566 22.7695 29.6512C22.3068 29.7128 21.8125 30.5384 21.6343 30.9117C21.1942 31.8349 20.9981 32.968 21.0934 33.9875C21.1647 34.7521 21.4019 35.5015 21.8715 36.1144C22.0216 36.3104 22.2663 36.6152 22.4473 36.7766ZM22.6303 28.5797C20.5491 28.8561 18.823 33.8988 21.0248 36.7759C21.1798 36.9781 21.6089 37.4878 21.781 37.6229C21.8858 37.7046 21.9757 37.7843 22.0833 37.8674C23.7724 39.1778 26.0661 38.9014 26.9052 36.6768C27.346 35.5084 27.2075 34.1447 26.7722 33.0386C26.1676 31.5025 24.4579 28.3366 22.6303 28.5797Z" fill="#2A2829"/>
</svg>
