<svg width="19" height="19" viewBox="0 0 19 19" fill="none" xmlns="http://www.w3.org/2000/svg">
<g clip-path="url(#clip0_596_3202)">
<path d="M9.50029 19.0006C14.7472 19.0006 19.0006 14.7472 19.0006 9.50029C19.0006 4.25343 14.7472 0 9.50029 0C4.25343 0 0 4.25343 0 9.50029C0 14.7472 4.25343 19.0006 9.50029 19.0006Z" fill="url(#paint0_linear_596_3202)"/>
<path d="M12.2215 15.4376H6.77913C5.00544 15.4376 3.56305 13.9952 3.56305 12.2215V6.77858C3.56305 5.00489 5.00602 3.5625 6.77913 3.5625H12.2215C13.9952 3.5625 15.4375 5.00489 15.4375 6.77858V12.2215C15.4375 13.9952 13.9952 15.4376 12.2215 15.4376ZM6.77855 4.55233C5.55083 4.55233 4.55172 5.55145 4.55172 6.77916V12.2221C4.55172 13.4498 5.55025 14.4489 6.77855 14.4489H12.2209C13.4486 14.4489 14.4477 13.4504 14.4477 12.2221V6.77916C14.4477 5.55145 13.4486 4.55233 12.2209 4.55233H6.77855Z" fill="white"/>
<path d="M9.50029 12.4686C7.86352 12.4686 6.53137 11.1364 6.53137 9.49967C6.53137 7.86291 7.86352 6.53076 9.50029 6.53076C11.137 6.53076 12.4692 7.86233 12.4692 9.49967C12.4692 11.137 11.1376 12.4686 9.50029 12.4686ZM9.50029 7.52117C8.40892 7.52117 7.5212 8.40889 7.5212 9.50026C7.5212 10.5916 8.40892 11.4793 9.50029 11.4793C10.5917 11.4793 11.4794 10.5916 11.4794 9.50026C11.4794 8.40889 10.5917 7.52117 9.50029 7.52117Z" fill="white"/>
<path d="M12.6543 5.66553C13.0297 5.66553 13.3343 5.97014 13.3343 6.34611C13.3343 6.72208 13.0297 7.02611 12.6543 7.02611C12.2789 7.02611 11.9737 6.7215 11.9737 6.34611C11.9737 5.97072 12.2783 5.66553 12.6543 5.66553Z" fill="white"/>
</g>
<defs>
<linearGradient id="paint0_linear_596_3202" x1="4.05042" y1="17.2826" x2="14.9496" y2="1.71741" gradientUnits="userSpaceOnUse">
<stop stop-color="#FFB900"/>
<stop offset="0.5" stop-color="#F50087"/>
<stop offset="1" stop-color="#6633FF"/>
</linearGradient>
<clipPath id="clip0_596_3202">
<rect width="19" height="19" fill="white"/>
</clipPath>
</defs>
</svg>
