<svg width="15" height="18" viewBox="0 0 15 18" fill="none" xmlns="http://www.w3.org/2000/svg">
<g clip-path="url(#clip0_677_937)">
<path d="M14.0031 10.0262C14.3938 9.6356 14.3938 9.00122 14.0031 8.6106L9.00313 3.6106C8.6125 3.21997 7.97813 3.21997 7.5875 3.6106C7.19688 4.00122 7.19688 4.6356 7.5875 5.02622L10.8844 8.31997H1.29688C0.74375 8.31997 0.296875 8.76685 0.296875 9.31997C0.296875 9.8731 0.74375 10.32 1.29688 10.32H10.8813L7.59062 13.6137C7.2 14.0043 7.2 14.6387 7.59062 15.0293C7.98125 15.42 8.61563 15.42 9.00625 15.0293L14.0063 10.0293L14.0031 10.0262Z" fill="white"/>
</g>
<defs>
<clipPath id="clip0_677_937">
<path d="M0.296875 1.31995H14.2969V17.3199H0.296875V1.31995Z" fill="white"/>
</clipPath>
</defs>
</svg>
