<svg width="16" height="15" viewBox="0 0 16 15" fill="none" xmlns="http://www.w3.org/2000/svg">
<g clip-path="url(#clip0_257_26478)">
<path fill-rule="evenodd" clip-rule="evenodd" d="M7.70217 6.63309C6.9794 6.71082 6.52706 6.97092 6.01495 7.40072C5.83114 7.55501 5.61556 7.83397 5.46768 8.08638C5.32358 8.33225 5.02063 8.79167 4.84135 8.99714L4.08871 9.77862C4.05996 9.8044 4.04672 9.82363 4.01874 9.84864C3.98394 9.8802 3.96503 9.88789 3.92796 9.91983C3.8561 9.98216 3.82282 10.0095 3.75361 10.0672C3.37691 10.3827 2.94688 10.876 2.7086 11.4889C2.43477 12.1931 2.4586 12.8907 2.78878 13.5317C3.04635 14.0311 3.51987 14.4344 4.09665 14.6852C4.70747 14.9507 5.48697 15.0327 6.212 14.9315C6.99037 14.823 7.44461 14.4852 8.31034 14.5952C8.66586 14.6402 8.95141 14.7672 9.27857 14.8542C10.8784 15.2801 12.8988 14.7899 13.3799 13.1161C13.6322 12.2385 13.305 11.375 12.8342 10.7325C12.4019 10.1426 12.0312 9.98062 11.5584 9.54698C10.5554 8.62699 10.7718 7.88861 9.65981 7.12637C9.15943 6.78354 8.45557 6.55152 7.70217 6.63271" fill="#2A2829"/>
<path fill-rule="evenodd" clip-rule="evenodd" d="M6.06121 0.0273258C4.96325 0.203552 3.80478 1.67223 3.46968 2.77653C3.00145 4.3187 3.8252 5.989 4.96855 6.34376C6.05289 6.68006 6.98973 5.8501 7.35054 4.88663C7.48103 4.53879 7.56499 4.18519 7.58541 3.78002C7.62248 3.03587 7.55667 2.00852 7.38383 1.32324C7.21552 0.65643 6.87021 -0.102343 6.06159 0.0273258" fill="#2A2829"/>
<path fill-rule="evenodd" clip-rule="evenodd" d="M9.72241 0.017321C9.05146 0.150068 8.79692 0.896913 8.65357 1.63029C8.52309 2.29787 8.43799 3.43834 8.53217 4.12054C8.67664 5.16597 9.33133 6.18254 10.2712 6.37916C12.0257 6.74624 13.2485 4.34294 12.5204 2.49795C12.3457 2.0547 12.0685 1.59489 11.7822 1.23744L11.4675 0.886139C11.084 0.48636 10.3612 -0.108885 9.72241 0.017321Z" fill="#2A2829"/>
<path fill-rule="evenodd" clip-rule="evenodd" d="M14.3462 4.42451C13.7542 4.50647 13.2906 5.11518 13.0224 5.48302C12.7508 5.85587 12.3692 6.54962 12.2017 7.05328C11.9857 7.7024 11.9524 8.45578 12.2418 9.06719C12.6945 10.0237 13.6684 10.2746 14.6049 9.73169C14.7497 9.64743 14.8231 9.58432 14.9452 9.48851C15.0285 9.4231 15.0254 9.42387 15.1003 9.34115C15.1533 9.28266 15.2032 9.25765 15.2542 9.19262C15.6616 8.67395 15.9104 8.25108 15.9823 7.52271C16.0504 6.83358 15.9093 6.0498 15.6563 5.49149C15.4452 5.02591 15.0186 4.3314 14.3454 4.4249" fill="#2A2829"/>
<path fill-rule="evenodd" clip-rule="evenodd" d="M1.45128 4.21097C0.303023 4.36449 -0.649322 7.16603 0.565504 8.76437C0.650981 8.87673 0.887743 9.15992 0.982675 9.23495C1.04054 9.28036 1.09009 9.3246 1.14947 9.37078C2.08139 10.0988 3.3469 9.94524 3.80983 8.70935C4.05302 8.06024 3.97662 7.30262 3.73646 6.68814C3.40287 5.83471 2.4596 4.07591 1.45128 4.21097Z" fill="#2A2829"/>
<path fill-rule="evenodd" clip-rule="evenodd" d="M6.15311 0.620646C5.2628 0.763782 4.28398 2.12934 4.0336 2.95391C3.85432 3.54454 3.90349 4.19634 4.15274 4.7585C4.34071 5.18252 4.68678 5.62847 5.14063 5.7693C5.90122 6.00516 6.54797 5.34258 6.79873 4.67269C6.91181 4.37103 6.97951 4.07322 6.9954 3.74962C7.02982 3.0628 6.97914 2.13742 6.81159 1.47292C6.78549 1.36903 6.75523 1.26591 6.71892 1.16549C6.6221 0.897683 6.48443 0.567932 6.15311 0.621031M6.06121 0.0273258C4.96325 0.203552 3.80478 1.67223 3.46968 2.77653C3.00145 4.3187 3.8252 5.989 4.96855 6.34376C6.05289 6.68006 6.98973 5.8501 7.35054 4.88663C7.48103 4.53879 7.56499 4.18519 7.58541 3.78002C7.62248 3.03587 7.55667 2.00852 7.38383 1.32324C7.21552 0.65643 6.87021 -0.102343 6.06159 0.0273258H6.06121Z" fill="#2A2829"/>
<path fill-rule="evenodd" clip-rule="evenodd" d="M11.3344 1.62912L11.0382 1.29898C10.7981 1.0508 10.2043 0.534053 9.83474 0.60716C9.44745 0.68373 9.29616 1.42249 9.23262 1.74763C9.10705 2.3902 9.02763 3.39099 9.11689 4.03703C9.21295 4.73154 9.6532 5.63692 10.3903 5.79121C10.6029 5.83546 10.8136 5.82199 11.0163 5.74157C11.494 5.55265 11.8238 5.05129 11.9887 4.57764C12.1944 3.98662 12.2039 3.30711 11.9728 2.72187C11.8226 2.34172 11.5878 1.94809 11.3347 1.62912M9.72241 0.0173024C9.05146 0.150049 8.79692 0.896894 8.65357 1.63027C8.52309 2.29785 8.43799 3.43832 8.53217 4.12052C8.67664 5.16595 9.33133 6.18252 10.2712 6.37914C12.0257 6.74622 13.2485 4.34292 12.5204 2.49794C12.3453 2.05468 12.0685 1.59487 11.7822 1.23742L11.4675 0.886505C11.084 0.486726 10.3612 -0.108518 9.72241 0.0176872V0.0173024Z" fill="#2A2829"/>
<path fill-rule="evenodd" clip-rule="evenodd" d="M14.6215 8.98369C14.6366 8.96792 14.6514 8.9506 14.6661 8.93406C14.7111 8.88442 14.7546 8.84941 14.8019 8.80631C15.1495 8.36305 15.3382 8.04215 15.3953 7.4623C15.449 6.9163 15.3458 6.2391 15.1207 5.74236C15.019 5.51765 14.7384 4.97589 14.426 5.01899C14.0719 5.06824 13.6915 5.57268 13.4967 5.84009C13.2278 6.20871 12.9063 6.80895 12.7611 7.24529C12.5996 7.73087 12.5504 8.33342 12.7739 8.80593C13.0905 9.47466 13.7085 9.55931 14.3129 9.20917C14.4139 9.15068 14.4933 9.0845 14.5848 9.01255C14.5969 9.00293 14.6098 8.99331 14.6215 8.98331M14.3462 4.42451C13.7542 4.50647 13.2906 5.11518 13.0224 5.48302C12.7508 5.85587 12.3692 6.54962 12.2017 7.05328C11.9857 7.7024 11.9524 8.45578 12.2418 9.06719C12.6945 10.0237 13.6684 10.2746 14.6049 9.73169C14.7497 9.64743 14.8231 9.58432 14.9452 9.48851C15.0285 9.4231 15.0254 9.42387 15.1003 9.34115C15.1533 9.28266 15.2032 9.25765 15.2542 9.19262C15.6616 8.67395 15.9104 8.25108 15.9823 7.52271C16.0504 6.83358 15.9093 6.0498 15.6563 5.49149C15.4452 5.02591 15.0186 4.3314 14.3454 4.4249L14.3462 4.42451Z" fill="#2A2829"/>
<path fill-rule="evenodd" clip-rule="evenodd" d="M1.3503 8.76476C1.40363 8.80747 1.45544 8.85249 1.50915 8.89443C2.15439 9.39848 2.94864 9.32191 3.25802 8.49542C3.4441 7.99868 3.37678 7.3942 3.18767 6.91015C3.0239 6.49152 2.79886 6.05865 2.55038 5.68619C2.38321 5.4357 1.88094 4.75889 1.52806 4.80621C1.27277 4.84046 1.00007 5.29911 0.901737 5.5065C0.658924 6.0194 0.550754 6.64889 0.603326 7.21528C0.64266 7.64007 0.773523 8.05639 1.0326 8.39692C1.11543 8.50581 1.25045 8.67511 1.3503 8.76476ZM1.45128 4.21097C0.303023 4.36449 -0.649322 7.16603 0.565504 8.76437C0.650981 8.87673 0.887743 9.15992 0.982675 9.23495C1.04054 9.28036 1.09009 9.3246 1.14947 9.37078C2.08139 10.0988 3.3469 9.94524 3.80983 8.70935C4.05302 8.06024 3.97662 7.30262 3.73646 6.68814C3.40287 5.83471 2.4596 4.07591 1.45128 4.21097Z" fill="#2A2829"/>
</g>
<defs>
<clipPath id="clip0_257_26478">
<rect width="16" height="15" fill="white"/>
</clipPath>
</defs>
</svg>
