<svg width="137" height="53" viewBox="0 0 137 53" fill="none" xmlns="http://www.w3.org/2000/svg">
<g clip-path="url(#clip0_628_4773)">
<path d="M136.122 29.6911C135.568 27.1 132.898 28.1879 132.818 24.3435C132.818 24.3435 134.526 15.5283 130.614 14.0943C126.366 12.5335 124.376 13.706 120.442 12.5335C120.442 12.5335 104.027 0.108378 83.1543 0.608151C83.1543 0.608151 65.9507 0.108378 54.4683 3.19928C42.9824 6.29403 36.2949 13.8137 27.7221 16.1549C19.1492 18.4923 6.24474 19.5803 2.78521 25.6814C-0.677946 31.7825 1.42093 42.1585 1.52588 42.6467C1.91309 44.4498 6.30264 45.7684 11.8104 45.2686C11.5209 44.196 11.358 43.0658 11.358 41.8932C11.358 35.1655 16.5112 29.6911 22.844 29.6911C29.1768 29.6911 34.3299 35.1655 34.3299 41.8932C34.3299 43.0504 34.1743 44.173 33.8884 45.234H93.645L94.0757 45.1879C93.797 44.1384 93.645 43.0312 93.645 41.8894C93.645 35.1617 98.7981 29.6872 105.131 29.6872C111.464 29.6872 116.617 35.1617 116.617 41.8894C116.617 42.1816 116.602 42.4737 116.584 42.7621L116.932 42.7236C116.932 42.7236 133.766 39.8249 134.87 37.8758C135.97 35.9267 136.397 30.9559 136.129 29.6872L136.122 29.6911ZM69.7902 18.2501L41.4878 20.2454L42.512 13.1409C51.7579 4.67938 70.713 4.26418 70.713 4.26418L69.7938 18.2501H69.7902ZM102.609 15.9012L74.9976 17.8849L75.8624 4.36414C87.8912 3.79901 93.247 5.78657 93.247 5.78657C103 10.3806 102.609 15.8974 102.609 15.8974V15.9012Z" fill="#D9D9D9"/>
<path d="M22.8439 31.3632C17.3687 31.3632 12.9321 36.0764 12.9321 41.893C12.9321 47.7096 17.3687 52.4228 22.8439 52.4228C28.3191 52.4228 32.7557 47.7096 32.7557 41.893C32.7557 36.0764 28.3191 31.3632 22.8439 31.3632ZM22.8439 49.0782C19.113 49.0782 16.0805 45.8527 16.0805 41.8891C16.0805 37.9256 19.1166 34.7001 22.8439 34.7001C26.5712 34.7001 29.611 37.9256 29.611 41.8891C29.611 45.8527 26.5749 49.0782 22.8439 49.0782Z" fill="#D9D9D9"/>
<path d="M105.127 31.3632C99.6519 31.3632 95.2153 36.0764 95.2153 41.893C95.2153 47.7096 99.6519 52.4228 105.127 52.4228C110.602 52.4228 115.039 47.7096 115.039 41.893C115.039 36.0764 110.602 31.3632 105.127 31.3632ZM105.127 49.0782C101.396 49.0782 98.36 45.8527 98.36 41.8891C98.36 37.9256 101.396 34.7001 105.127 34.7001C108.858 34.7001 111.891 37.9256 111.891 41.8891C111.891 45.8527 108.854 49.0782 105.127 49.0782Z" fill="#D9D9D9"/>
</g>
<defs>
<clipPath id="clip0_628_4773">
<rect width="135.403" height="51.8457" fill="white" transform="translate(0.79834 0.577148)"/>
</clipPath>
</defs>
</svg>
