<svg width="29" height="48" viewBox="0 0 29 48" fill="none" xmlns="http://www.w3.org/2000/svg">
<g clip-path="url(#clip0_670_231)">
<path d="M3.64515 0H25.3549C26.3591 0 27.3014 0.40367 27.9461 1.03976L28.0081 1.10092C28.6528 1.737 29.0124 2.6055 29.0124 3.53517V44.4037C29.0124 45.3945 28.6032 46.263 27.9585 46.9602L27.8345 47.0214C27.1898 47.5963 26.3095 48.0122 25.3673 48.0122H3.64515C2.64087 48.0122 1.76058 47.6086 1.05387 46.9725V46.9113C0.409149 46.2752 0 45.4067 0 44.4159V3.53517C0 2.54434 0.409149 1.67584 1.05387 1.03976C1.69859 0.40367 2.64087 0 3.64515 0ZM14.531 40.7462C15.6469 40.7462 16.5271 41.6147 16.5271 42.6667C16.5271 43.7676 15.6469 44.6361 14.531 44.6361C13.4151 44.6361 12.4729 43.7676 12.4729 42.6667C12.4729 41.6269 13.4151 40.7462 14.531 40.7462ZM4.94699 3.53517H24.0654C24.7721 3.53517 25.3053 4.06116 25.3053 4.75841V38.8257C25.3053 39.4618 24.7721 39.9878 24.0654 39.9878H4.94699C4.30227 39.9878 3.70714 39.4618 3.70714 38.8257V4.75841C3.70714 4.06116 4.28987 3.53517 4.94699 3.53517ZM22.8876 5.92049H6.17443V37.6147H22.8876V5.92049ZM25.3549 2.38532H3.64515C3.29799 2.38532 3.00043 2.49541 2.76486 2.72783C2.59128 2.96024 2.4177 3.25382 2.4177 3.53517V44.4037C2.4177 44.7462 2.59128 45.0398 2.76486 45.211C3.00043 45.4434 3.29799 45.5535 3.64515 45.5535H25.3549C25.6524 45.5535 25.9376 45.4434 26.1732 45.2599L26.2351 45.1988C26.4087 45.0275 26.5823 44.7339 26.5823 44.3914V3.53517C26.5823 3.24159 26.4707 2.96024 26.2351 2.77676V2.7156C25.9996 2.48318 25.702 2.37309 25.3549 2.37309V2.38532Z" fill="black"/>
</g>
<defs>
<clipPath id="clip0_670_231">
<rect width="29" height="48" fill="white"/>
</clipPath>
</defs>
</svg>
