<svg width="37" height="39" viewBox="0 0 37 39" fill="none" xmlns="http://www.w3.org/2000/svg">
<path d="M18.22 0.952515C22.25 0.952515 25.91 2.56251 28.56 5.22251C31.22 7.88251 32.88 11.5325 32.88 15.6125C32.88 18.7925 31.84 21.7325 30.13 24.1025L36.49 30.4125C36.63 30.5525 36.77 30.7925 36.77 31.0725C36.77 31.5925 36.34 32.0225 35.82 32.0725L30.89 32.1625V37.1025C30.89 37.3425 30.8 37.5725 30.61 37.7625C30.23 38.1425 29.61 38.1425 29.23 37.7625L21.35 29.8825C20.35 30.1225 19.26 30.2625 18.22 30.2625C17.18 30.2625 16.27 30.1725 15.33 29.9825L7.55 37.7625C7.17 38.1425 6.55 38.1425 6.17 37.7625C5.98 37.5725 5.84 37.3325 5.84 37.1025V32.1625L0.95 32.0725C0.43 32.0225 0 31.6025 0 31.0725C0 30.7925 0.09 30.5525 0.28 30.4125L6.4 24.3425C4.6 21.8725 3.55 18.8825 3.55 15.6125C3.55 11.5325 5.16 7.88251 7.82 5.22251C10.49 2.56251 14.14 0.952515 18.22 0.952515ZM19.08 6.74251L21.31 11.1525L26.15 11.9125C26.72 12.0025 27.05 12.4825 27 13.0025C26.95 13.2425 26.86 13.4325 26.72 13.5725L23.21 17.0325L24.02 21.9225C24.07 22.4425 23.74 22.9225 23.21 23.0125C22.97 23.0625 22.74 23.0125 22.55 22.9225L18.23 20.6925L13.82 22.9225C13.35 23.1625 12.78 22.9725 12.49 22.4925C12.4 22.3025 12.4 22.1125 12.4 21.9225L13.21 17.0325L9.7 13.5725C9.32 13.1925 9.32 12.5725 9.7 12.1925C9.89 12.0025 10.08 11.9125 10.27 11.9125L15.11 11.1525L17.34 6.74251C17.58 6.27251 18.19 6.08251 18.67 6.31251C18.86 6.40251 19 6.55251 19.1 6.74251H19.08ZM19.79 12.4825L18.22 9.35251L16.61 12.4825C16.47 12.7625 16.23 12.9525 15.9 13.0025L12.44 13.5225L14.91 15.9925C15.15 16.2325 15.24 16.5125 15.19 16.8425L14.62 20.3025L17.75 18.6925C18.03 18.6025 18.37 18.5525 18.65 18.6925L21.78 20.3025L21.21 16.8825C21.16 16.5525 21.26 16.2225 21.49 15.9825L23.96 13.5125L20.54 12.9925C20.21 12.9425 19.92 12.7525 19.78 12.4725L19.79 12.4825ZM13.19 29.3725C11.15 28.6125 9.35 27.4725 7.83 25.9525L7.69 25.8125L3.28 30.1825L6.79 30.2725H6.84C7.36 30.2725 7.84 30.7025 7.84 31.2225V34.7325L13.2 29.3725H13.19ZM28.9 25.6325C28.81 25.7725 28.66 25.8725 28.57 25.9625C27.15 27.3825 25.39 28.5225 23.49 29.2825L28.95 34.7425V31.2325C28.95 30.7125 29.38 30.2825 29.95 30.2825H30L33.51 30.1925L28.91 25.6325H28.9ZM27.19 6.60251C24.86 4.32251 21.73 2.90251 18.22 2.90251C14.71 2.90251 11.53 4.32251 9.2 6.60251C6.92 8.93251 5.5 12.1025 5.5 15.6225C5.5 19.1425 6.92 22.3125 9.2 24.5925C10.77 26.1625 12.76 27.3425 14.99 27.9125H15.04L15.18 27.9625C16.13 28.2025 17.17 28.2925 18.22 28.2925C21.68 28.2925 24.86 26.8725 27.19 24.5925C29.47 22.3125 30.89 19.1325 30.89 15.6225C30.89 12.1125 29.47 8.93251 27.19 6.60251Z" fill="#1D3753"/>
</svg>
