<svg width="19" height="19" viewBox="0 0 19 19" fill="none" xmlns="http://www.w3.org/2000/svg">
<g clip-path="url(#clip0_596_3229)">
<path d="M9.50029 19.0006C14.7472 19.0006 19.0006 14.7472 19.0006 9.50029C19.0006 4.25343 14.7472 0 9.50029 0C4.25343 0 0 4.25343 0 9.50029C0 14.7472 4.25343 19.0006 9.50029 19.0006Z" fill="black"/>
<path d="M8.26795 8.1601V7.66809C8.09679 7.64372 7.92505 7.63153 7.75272 7.63037C5.64426 7.63037 3.92917 9.34604 3.92917 11.4545C3.92917 12.7478 4.57552 13.8931 5.56187 14.5853C4.90159 13.8792 4.5349 12.9485 4.5349 11.9813C4.5349 9.90304 6.20125 8.20826 8.26795 8.1601Z" fill="#00F2EA"/>
<path d="M8.35787 13.7279C9.29839 13.7279 10.066 12.9794 10.1008 12.047L10.1037 3.72223H11.6244C11.5925 3.54875 11.5757 3.37179 11.5751 3.19482H9.49798L9.4945 11.5202C9.45968 12.4526 8.69207 13.2005 7.75156 13.2005C7.469 13.2005 7.19108 13.132 6.94101 13.0003C7.26825 13.4569 7.79507 13.7273 8.35671 13.7279M14.4663 6.54783V6.08541C13.907 6.08541 13.3598 5.92353 12.8922 5.61776C13.3024 6.09005 13.8547 6.41671 14.4663 6.54783Z" fill="#00F2EA"/>
<path d="M12.8922 5.61654C12.4338 5.09203 12.1809 4.41841 12.1814 3.72217H11.6245C11.7701 4.50022 12.2279 5.18487 12.8922 5.61654ZM7.75274 9.70815C6.78843 9.70931 6.00748 10.4908 6.00632 11.4546C6.00632 12.1032 6.36721 12.6985 6.94219 13.0002C6.72751 12.7043 6.61147 12.3475 6.61147 11.982C6.61263 11.0177 7.39359 10.2367 8.35789 10.2356C8.53776 10.2356 8.71008 10.2651 8.87311 10.3162V8.19497C8.70195 8.17119 8.53021 8.15842 8.35789 8.15784C8.32772 8.15784 8.29755 8.15958 8.26796 8.16016V9.7888C8.10144 9.736 7.92738 9.70815 7.75274 9.70815Z" fill="#FF004F"/>
<path d="M14.4663 6.54794V8.16266C13.3888 8.16266 12.3909 7.81801 11.5757 7.23317V11.4547C11.5757 13.5626 9.8606 15.2783 7.75272 15.2783C6.93811 15.2783 6.1821 15.0213 5.56128 14.585C6.28306 15.3636 7.29667 15.8057 8.35787 15.8057C10.4663 15.8057 12.1814 14.0906 12.1814 11.9822V7.76057C13.0233 8.36573 14.0346 8.69122 15.0714 8.68948V6.61177C14.8637 6.61177 14.6612 6.58914 14.4657 6.54736" fill="#FF004F"/>
<path d="M11.5757 11.4545V7.2329C12.4182 7.83806 13.4289 8.16355 14.4663 8.16239V6.54768C13.8548 6.41597 13.3024 6.08932 12.8922 5.61703C12.2284 5.18535 11.7707 4.50071 11.6244 3.72266H10.1037L10.1008 12.048C10.066 12.9804 9.2984 13.7283 8.35789 13.7283C7.79625 13.7283 7.26942 13.4568 6.94219 13.0007C6.3672 12.699 6.00689 12.1043 6.00631 11.4551C6.00747 10.4908 6.78843 9.7098 7.75273 9.70864C7.9326 9.70864 8.10492 9.73823 8.26796 9.78929V8.16065C6.20126 8.20939 4.53491 9.90359 4.53491 11.9819C4.53491 12.9874 4.92539 13.9024 5.56188 14.5858C6.203 15.0372 6.96888 15.2792 7.75331 15.2786C9.86178 15.2786 11.5763 13.5629 11.5763 11.4551" fill="white"/>
</g>
<defs>
<clipPath id="clip0_596_3229">
<rect width="19" height="19" fill="white"/>
</clipPath>
</defs>
</svg>
