<svg width="130" height="76" viewBox="0 0 130 76" fill="none" xmlns="http://www.w3.org/2000/svg">
<g clip-path="url(#clip0_600_4026)">
<path d="M19.139 68.2814H110.876C112.088 68.2814 113.085 66.8897 113.085 65.1768V3.60461C113.085 1.89172 112.104 0.5 110.876 0.5H19.139C17.9271 0.5 16.9299 1.89172 16.9299 3.60461V65.1921C16.9299 66.905 17.9117 68.2967 19.139 68.2967V68.2814ZM20.7651 4.21635H109.511V64.5345H20.7651V4.21635Z" fill="#1D3753"/>
<path d="M129.5 73.0223V72.9612V72.9153V69.4895H0.576704L0.5 72.8388C0.5 72.8388 0.5 72.9153 0.530681 72.9459C0.607385 73.4658 1.29772 74.5517 5.43971 75.4999H124.422C124.422 75.4999 128.457 75.0258 129.5 73.0682V73.0376V73.0223ZM73.5524 71.5847C73.1536 72.2118 72.3866 72.1047 72.3866 72.1047H57.4294C56.8924 72.0435 56.5856 71.8294 56.4169 71.5694C55.9413 71.0342 56.2021 70.1777 56.2021 70.1777H73.8593C73.9206 70.8812 73.7672 71.3247 73.5524 71.5847Z" fill="#1D3753"/>
</g>
<defs>
<clipPath id="clip0_600_4026">
<rect width="129" height="75" fill="white" transform="translate(0.5 0.5)"/>
</clipPath>
</defs>
</svg>
