<svg width="27" height="28" viewBox="0 0 27 28" fill="none" xmlns="http://www.w3.org/2000/svg">
<path d="M0.75 3.6875C0.75 2.13477 2.00977 0.875 3.5625 0.875H9.1875C10.7402 0.875 12 2.13477 12 3.6875V9.3125C12 10.8652 10.7402 12.125 9.1875 12.125H3.5625C2.00977 12.125 0.75 10.8652 0.75 9.3125V3.6875ZM4.5 4.625V8.375H8.25V4.625H4.5ZM0.75 18.6875C0.75 17.1348 2.00977 15.875 3.5625 15.875H9.1875C10.7402 15.875 12 17.1348 12 18.6875V24.3125C12 25.8652 10.7402 27.125 9.1875 27.125H3.5625C2.00977 27.125 0.75 25.8652 0.75 24.3125V18.6875ZM4.5 19.625V23.375H8.25V19.625H4.5ZM18.5625 0.875H24.1875C25.7402 0.875 27 2.13477 27 3.6875V9.3125C27 10.8652 25.7402 12.125 24.1875 12.125H18.5625C17.0098 12.125 15.75 10.8652 15.75 9.3125V3.6875C15.75 2.13477 17.0098 0.875 18.5625 0.875ZM23.25 4.625H19.5V8.375H23.25V4.625ZM15.75 16.8125C15.75 16.2969 16.1719 15.875 16.6875 15.875H20.4375C20.9531 15.875 21.375 16.2969 21.375 16.8125C21.375 17.3281 21.7969 17.75 22.3125 17.75H24.1875C24.7031 17.75 25.125 17.3281 25.125 16.8125C25.125 16.2969 25.5469 15.875 26.0625 15.875C26.5781 15.875 27 16.2969 27 16.8125V22.4375C27 22.9531 26.5781 23.375 26.0625 23.375H22.3125C21.7969 23.375 21.375 22.9531 21.375 22.4375C21.375 21.9219 20.9531 21.5 20.4375 21.5C19.9219 21.5 19.5 21.9219 19.5 22.4375V26.1875C19.5 26.7031 19.0781 27.125 18.5625 27.125H16.6875C16.1719 27.125 15.75 26.7031 15.75 26.1875V16.8125ZM22.3125 27.125C22.0639 27.125 21.8254 27.0262 21.6496 26.8504C21.4738 26.6746 21.375 26.4361 21.375 26.1875C21.375 25.9389 21.4738 25.7004 21.6496 25.5246C21.8254 25.3488 22.0639 25.25 22.3125 25.25C22.5611 25.25 22.7996 25.3488 22.9754 25.5246C23.1512 25.7004 23.25 25.9389 23.25 26.1875C23.25 26.4361 23.1512 26.6746 22.9754 26.8504C22.7996 27.0262 22.5611 27.125 22.3125 27.125ZM26.0625 27.125C25.8139 27.125 25.5754 27.0262 25.3996 26.8504C25.2238 26.6746 25.125 26.4361 25.125 26.1875C25.125 25.9389 25.2238 25.7004 25.3996 25.5246C25.5754 25.3488 25.8139 25.25 26.0625 25.25C26.3111 25.25 26.5496 25.3488 26.7254 25.5246C26.9012 25.7004 27 25.9389 27 26.1875C27 26.4361 26.9012 26.6746 26.7254 26.8504C26.5496 27.0262 26.3111 27.125 26.0625 27.125Z" fill="#4B5563"/>
</svg>
