<svg width="139" height="53" viewBox="0 0 139 53" fill="none" xmlns="http://www.w3.org/2000/svg">
<g clip-path="url(#clip0_628_4783)">
<path d="M18.529 30.5029C12.8627 30.5029 8.26978 35.4094 8.26978 41.4629C8.26978 47.5163 12.8627 52.4228 18.529 52.4228C24.1954 52.4228 28.7883 47.5163 28.7883 41.4629C28.7883 35.4094 24.1954 30.5029 18.529 30.5029ZM18.529 47.364C15.4832 47.364 13.0052 44.7167 13.0052 41.4629C13.0052 38.209 15.4832 35.5617 18.529 35.5617C21.5749 35.5617 24.0529 38.209 24.0529 41.4629C24.0529 44.7167 21.5749 47.364 18.529 47.364Z" fill="#D9D9D9"/>
<path d="M99.0676 30.5029C93.4012 30.5029 88.8083 35.4094 88.8083 41.4629C88.8083 47.5163 93.4012 52.4228 99.0676 52.4228C104.734 52.4228 109.327 47.5163 109.327 41.4629C109.327 35.4094 104.734 30.5029 99.0676 30.5029ZM99.0676 47.364C96.0218 47.364 93.5437 44.7167 93.5437 41.4629C93.5437 38.209 96.0218 35.5617 99.0676 35.5617C102.113 35.5617 104.591 38.209 104.591 41.4629C104.591 44.7167 102.113 47.364 99.0676 47.364Z" fill="#D9D9D9"/>
<path d="M138.506 32.4405C138.506 32.4405 138.585 30.9523 137.008 29.9135C137.008 29.9135 137.086 16.1147 135.559 15.4713C135.559 15.4713 135.585 13.6172 134.192 12.9714L85.132 15.4124C85.132 15.4124 83.87 3.10418 82.6861 2.09242C81.5023 1.08065 82.6701 0.321824 69.4983 0.658261C56.3288 0.997153 51.9083 2.43131 47.412 4.62183C47.412 4.62183 35.3367 12.2936 30.9967 16.5076C30.9967 16.5076 1.95675 16.8465 2.42799 28.1405C2.42799 28.1405 0.480957 28.8158 0.480957 29.8841C0.480957 30.9523 0.795884 37.1899 0.795884 37.1899C0.795884 37.1899 1.63722 39.7758 2.89923 40.7311L5.22785 41.0823C5.22785 41.0823 5.96345 41.5783 6.70134 42.0474C6.69215 41.8534 6.68755 41.6569 6.68755 41.4605C6.68755 34.4861 11.9976 28.8134 18.5238 28.8134C25.0499 28.8134 30.3623 34.4861 30.3623 41.4605C30.3623 41.7895 30.3462 42.1137 30.3232 42.4354L87.2262 41.485C87.2262 41.485 87.2262 41.4678 87.2262 41.4605C87.2262 34.4861 92.5362 28.8134 99.0647 28.8134C105.593 28.8134 110.901 34.4861 110.901 41.4605C110.901 41.5169 110.899 41.5759 110.896 41.6348C114.344 41.625 116.82 41.5783 116.905 41.4605C117.195 41.0675 117.011 39.9428 116.905 38.8205C116.905 38.8205 116.85 37.7793 117.841 37.5853C118.248 37.5042 135.396 36.6865 135.396 36.6865C135.396 36.6865 138.711 36.517 138.5 32.4405H138.506ZM74.4521 5.04422C74.2429 7.46067 73.505 9.54069 71.7166 12.689C69.9281 15.8348 65.9283 16.1172 63.825 16.5101C61.7194 16.903 33.2587 18.7031 33.2587 18.7031C41.4652 10.0466 47.504 6.84674 47.504 6.84674C55.5932 1.8714 70.5603 2.96666 72.8223 3.07717C75.0842 3.19013 74.4521 5.04422 74.4521 5.04422Z" fill="#D9D9D9"/>
</g>
<defs>
<clipPath id="clip0_628_4783">
<rect width="138.032" height="51.8457" fill="white" transform="translate(0.483887 0.577148)"/>
</clipPath>
</defs>
</svg>
