<svg width="70" height="70" viewBox="0 0 70 70" fill="none" xmlns="http://www.w3.org/2000/svg">
<path d="M70 35C70 54.33 54.33 70 35 70C15.67 70 0 54.33 0 35C0 15.67 15.67 0 35 0C54.33 0 70 15.67 70 35Z" fill="#D9D9D9"/>
<path d="M36.1046 29.3045C36.1046 30.7998 37.3512 32.0168 38.8829 32.0168C40.0745 32.0168 41.1331 31.2765 41.5153 30.1738L41.7064 29.6229L42.2466 29.8671C42.6138 30.0331 43.006 30.1171 43.4112 30.1171C43.7704 30.1171 44.1196 30.0507 44.4517 29.9198L45.017 29.6971L45.1711 30.2724C45.7434 32.4173 47.7314 33.9156 50.0045 33.9156C52.7589 33.9156 55 31.7277 55 29.0388C55 26.8802 53.5173 24.9541 51.3942 24.3554L50.99 24.2411L51.009 23.8299C51.012 23.7664 51.014 23.7039 51.014 23.6395C51.014 21.3315 49.091 19.4542 46.7269 19.4542C46.6448 19.4542 46.5578 19.4571 46.4517 19.464L46.1136 19.4845L45.9495 19.1954C45.1931 17.8631 43.7554 17.0349 42.1976 17.0349C40.5478 17.0349 39.026 17.9764 38.3197 19.4347L37.6863 20.7415L37.3172 19.3409C36.8299 17.4929 35.1231 16.2027 33.1651 16.2027C31.6593 16.2027 30.2916 16.9528 29.5053 18.2079L29.1221 18.8193L28.6428 18.2753C27.8264 17.3494 26.6418 16.818 25.3932 16.818C23.029 16.818 21.1061 18.6953 21.1061 21.0033C21.1061 23.3113 23.029 25.1886 25.3932 25.1886C25.4382 25.1886 25.4832 25.1866 25.5273 25.1856L25.9705 25.17L26.0825 25.5675C26.5928 27.3754 28.2916 28.6383 30.2146 28.6383C30.901 28.6383 31.5573 28.484 32.1666 28.1793L32.4107 28.0572L32.6548 28.1793C33.2641 28.484 33.9205 28.6383 34.6068 28.6383C34.8979 28.6383 35.1881 28.61 35.4712 28.5534L36.1636 28.4157L36.1126 29.1033C36.1066 29.1795 36.1046 29.242 36.1046 29.3006V29.3045Z" fill="#2A2829"/>
<path d="M36.1046 29.3045C36.1046 30.7998 37.3512 32.0168 38.8829 32.0168C39.9745 32.0168 40.951 31.3947 41.4022 30.4443C39.8824 28.3981 37.5813 26.9398 34.927 26.4876C34.3547 26.3899 33.7664 26.3391 33.1651 26.3391C32.5638 26.3391 31.9755 26.3899 31.4032 26.4876C30.0755 26.7142 28.8359 27.1928 27.7394 27.8697C28.4467 28.359 29.3062 28.6413 30.2156 28.6413C30.902 28.6413 31.5583 28.487 32.1676 28.1822L32.4117 28.0601L32.6558 28.1822C33.2651 28.487 33.9215 28.6413 34.6078 28.6413C34.8989 28.6413 35.1891 28.613 35.4722 28.5563L36.1646 28.4186L36.1136 29.1062C36.1076 29.1824 36.1056 29.2449 36.1056 29.3035L36.1046 29.3045Z" fill="#2A2829"/>
<path d="M42.1476 31.6086C42.1166 31.5509 42.0835 31.4943 42.0515 31.4376C41.3462 32.4368 40.1716 33.0619 38.8839 33.0619C36.8879 33.0619 35.2411 31.5705 35.053 29.6698C34.905 29.6815 34.7569 29.6874 34.6088 29.6874C33.8424 29.6874 33.1051 29.533 32.4127 29.2273C31.7204 29.5321 30.983 29.6874 30.2166 29.6874C28.951 29.6874 27.7634 29.2488 26.8289 28.5045C25.7454 29.3494 24.8409 30.4052 24.1846 31.6095C23.6393 32.6107 23.2641 33.7134 23.097 34.8806C23.032 35.3338 22.999 35.7958 22.999 36.2666C22.999 38.9467 24.0865 41.3788 25.8554 43.1652C26.6728 43.9915 27.6363 44.6791 28.7049 45.189C30.0525 45.8326 31.5663 46.194 33.1671 46.194C34.7679 46.194 36.2826 45.8326 37.6303 45.189C38.6988 44.6791 39.6613 43.9915 40.4797 43.1652C42.2476 41.3797 43.3362 38.9477 43.3362 36.2666C43.3362 35.7958 43.3031 35.3338 43.2381 34.8806C43.071 33.7124 42.6958 32.6097 42.1506 31.6095L42.1476 31.6086Z" fill="#2A2829"/>
<path d="M29.7854 20.1975L29.3322 18.835L25.7714 19.9641L26.2246 21.3256C27.3502 20.8265 28.5428 20.4456 29.7854 20.1975Z" fill="#2A2829"/>
<path d="M33.1661 19.8654C33.7984 19.8654 34.4237 19.8996 35.038 19.966V18.5322H31.2941V19.966C31.9085 19.8996 32.5328 19.8654 33.1661 19.8654Z" fill="#2A2829"/>
<path d="M16.3657 36.2666C16.3657 35.6493 16.4007 35.0388 16.4687 34.4391H15V38.094H16.4687C16.4007 37.4943 16.3657 36.8848 16.3657 36.2666Z" fill="#2A2829"/>
<path d="M20.7589 25.2081L19.5693 24.3642L17.3692 27.3207L18.5568 28.1627C19.1781 27.0971 19.9185 26.1067 20.7599 25.2071L20.7589 25.2081Z" fill="#2A2829"/>
<path d="M49.6253 32.9662L51.021 32.5238L49.8644 29.0476L48.4697 29.4901C48.981 30.5889 49.3722 31.7531 49.6263 32.9662H49.6253Z" fill="#2A2829"/>
<path d="M44.4937 24.1542L45.3582 22.9929L42.3297 20.8451L41.4672 22.0044C42.5588 22.611 43.5733 23.3328 44.4937 24.1542Z" fill="#2A2829"/>
<path d="M47.7754 28.1627L48.963 27.3207L46.7629 24.3642L45.5733 25.2081C46.4147 26.1067 47.1541 27.0981 47.7764 28.1637L47.7754 28.1627Z" fill="#2A2829"/>
<path d="M17.8624 29.4901L16.4677 29.0476L15.3112 32.5238L16.7069 32.9662C16.961 31.7531 17.3512 30.5898 17.8634 29.4901H17.8624Z" fill="#2A2829"/>
<path d="M36.5458 52.3347L36.999 53.6972L40.5598 52.5681L40.1066 51.2066C38.981 51.7057 37.7884 52.0866 36.5458 52.3347Z" fill="#2A2829"/>
<path d="M45.5723 47.3241L46.7619 48.168L48.962 45.2114L47.7744 44.3695C47.1531 45.4351 46.4127 46.4255 45.5713 47.3251L45.5723 47.3241Z" fill="#2A2829"/>
<path d="M41.4662 50.5277L42.3287 51.6871L45.3572 49.5393L44.4927 48.378C43.5723 49.1994 42.5568 49.9212 41.4662 50.5277Z" fill="#2A2829"/>
<path d="M49.8624 34.4391C49.9305 35.0388 49.9655 35.6483 49.9655 36.2666C49.9655 36.8848 49.9305 37.4943 49.8624 38.094H51.3312V34.4391H49.8624Z" fill="#2A2829"/>
<path d="M48.4697 43.0421L49.8644 43.4846L51.021 40.0084L49.6253 39.566C49.3712 40.779 48.981 41.9423 48.4687 43.0421H48.4697Z" fill="#2A2829"/>
<path d="M26.2256 51.2056L25.7724 52.5671L29.3332 53.6962L29.7864 52.3337C28.5438 52.0856 27.3522 51.7057 26.2256 51.2056Z" fill="#2A2829"/>
<path d="M18.5568 44.3695L17.3692 45.2114L19.5693 48.168L20.7589 47.3241C19.9175 46.4255 19.1781 45.4341 18.5558 44.3685L18.5568 44.3695Z" fill="#2A2829"/>
<path d="M33.1661 52.6668C32.5338 52.6668 31.9085 52.6326 31.2941 52.5662V54H35.038V52.5662C34.4237 52.6326 33.7994 52.6668 33.1661 52.6668Z" fill="#2A2829"/>
<path d="M21.8384 48.378L20.974 49.5393L24.0025 51.6871L24.8649 50.5277C23.7734 49.9212 22.7589 49.1984 21.8374 48.377L21.8384 48.378Z" fill="#2A2829"/>
<path d="M16.7059 39.566L15.3102 40.0084L16.4667 43.4846L17.8614 43.0421C17.3502 41.9433 16.959 40.779 16.7049 39.566H16.7059Z" fill="#2A2829"/>
<path d="M33.1661 37.8469C34.3447 37.8469 35.3001 36.9142 35.3001 35.7636C35.3001 34.613 34.3447 33.6802 33.1661 33.6802C31.9875 33.6802 31.032 34.613 31.032 35.7636C31.032 36.9142 31.9875 37.8469 33.1661 37.8469Z" fill="black"/>
<path d="M38.2098 16.7434C38.5103 16.4501 38.5103 15.9745 38.2098 15.6812C37.9094 15.3879 37.4222 15.3879 37.1218 15.6812C36.8213 15.9745 36.8213 16.4501 37.1218 16.7434C37.4222 17.0368 37.9094 17.0368 38.2098 16.7434Z" fill="#2A2829"/>
<path d="M48.5771 17.2462C48.7154 16.6745 48.3527 16.1016 47.767 15.9667C47.1814 15.8317 46.5946 16.1858 46.4563 16.7576C46.3181 17.3293 46.6808 17.9022 47.2665 18.0371C47.8521 18.172 48.4389 17.818 48.5771 17.2462Z" fill="#2A2829"/>
<path d="M30.1594 14.308C30.2976 13.7362 29.9349 13.1634 29.3493 13.0284C28.7636 12.8935 28.1768 13.2476 28.0386 13.8193C27.9004 14.391 28.2631 14.9639 28.8487 15.0989C29.4344 15.2338 30.0212 14.8797 30.1594 14.308Z" fill="#2A2829"/>
<path d="M45.018 29.6971L45.1721 30.2724C45.7264 32.3509 47.6093 33.8218 49.7934 33.9117C48.8459 27.48 44.0775 22.2545 37.8064 20.4993L37.6883 20.7445L37.6093 20.4466C36.1946 20.0686 34.7039 19.8654 33.1661 19.8654C28.986 19.8654 25.1651 21.3559 22.2246 23.8221C23.009 24.6631 24.1396 25.1925 25.3942 25.1925C25.4392 25.1925 25.4842 25.1905 25.5283 25.1895L25.9715 25.1739L26.0835 25.5714C26.1586 25.8371 26.2596 26.0901 26.3827 26.3294C28.3237 25.0635 30.6568 24.3251 33.1661 24.3251C37.6133 24.3251 41.5063 26.6419 43.6473 30.1073C43.9245 30.0849 44.1946 30.0224 44.4537 29.9198L45.019 29.6971H45.018Z" fill="#2A2829"/>
<path d="M44.3027 31.0606C44.2646 31.0694 44.2266 31.0753 44.1886 31.0831C44.963 32.6507 45.3972 34.4088 45.3972 36.2656C45.3972 42.8604 39.9205 48.2061 33.1661 48.2061C26.4117 48.2061 20.935 42.8595 20.935 36.2656C20.935 32.5003 22.7209 29.1423 25.5103 26.9545C25.3822 26.724 25.2701 26.4837 25.1771 26.2327C23.6973 26.175 22.3717 25.5275 21.4372 24.5263C18.3097 27.5053 16.3667 31.6633 16.3667 36.2656C16.3667 45.3238 23.8874 52.6668 33.1661 52.6668C42.4447 52.6668 49.9675 45.3238 49.9675 36.2656C49.9675 35.8261 49.9495 35.3905 49.9145 34.9587C47.3812 34.9216 45.1551 33.354 44.3037 31.0606H44.3027Z" fill="#2A2829"/>
<path d="M44.922 25.5999C45.3146 25.4412 45.501 25.0018 45.3384 24.6185C45.1758 24.2353 44.7257 24.0533 44.3331 24.212C43.9406 24.3708 43.7541 24.8102 43.9167 25.1934C44.0794 25.5767 44.5294 25.7586 44.922 25.5999Z" fill="white"/>
<path d="M29.6026 22.7714C29.9952 22.6127 30.1816 22.1733 30.019 21.79C29.8564 21.4068 29.4064 21.2248 29.0138 21.3835C28.6212 21.5423 28.4348 21.9817 28.5974 22.3649C28.76 22.7482 29.2101 22.9301 29.6026 22.7714Z" fill="white"/>
<path d="M33.4139 22.1269C33.7143 21.8336 33.7143 21.358 33.4139 21.0647C33.1134 20.7713 32.6262 20.7713 32.3258 21.0647C32.0253 21.358 32.0253 21.8336 32.3258 22.1269C32.6262 22.4202 33.1134 22.4202 33.4139 22.1269Z" fill="white"/>
<path d="M50.9413 30.0806C51.0975 29.4348 50.6878 28.7878 50.0263 28.6354C49.3648 28.483 48.7021 28.8829 48.5459 29.5286C48.3898 30.1744 48.7995 30.8214 49.461 30.9739C50.1224 31.1263 50.7852 30.7263 50.9413 30.0806Z" fill="white"/>
<path d="M42.1476 31.6086L40.3477 31.6086C39.9175 31.8694 39.4142 32.0168 38.8829 32.0168C38.3517 32.0168 37.8454 31.8674 37.4192 31.6086H36.6308L35.6063 28.5299L35.4712 28.5573C35.1891 28.6139 34.8979 28.6423 34.6068 28.6423C33.9205 28.6423 33.2641 28.4879 32.6548 28.1832L32.4107 28.0611L32.1666 28.1832C31.7014 28.4157 31.2081 28.5602 30.6948 28.6159L29.6984 31.6086H24.1826C23.6373 32.6097 23.2621 33.7124 23.095 34.8796L27.5573 38.0442L25.8534 43.1632C26.6708 43.9895 27.6343 44.6772 28.7029 45.187L33.1651 42.0214L37.6283 45.187C38.6968 44.6772 39.6593 43.9895 40.4777 43.1632L38.7739 38.0442L43.2361 34.8796C43.069 33.7115 42.6938 32.6087 42.1486 31.6086L42.1476 31.6086Z" fill="#D9D9D9"/>
</svg>
