<svg width="38" height="39" viewBox="0 0 38 39" fill="none" xmlns="http://www.w3.org/2000/svg">
<path d="M18.99 0.952515C23.02 0.952515 26.68 2.56251 29.33 5.22251C31.99 7.88251 33.65 11.5325 33.65 15.6125C33.65 18.7925 32.61 21.7325 30.9 24.1025L37.26 30.4125C37.4 30.5525 37.54 30.7925 37.54 31.0725C37.54 31.5925 37.11 32.0225 36.59 32.0725L31.66 32.1625V37.1025C31.66 37.3425 31.57 37.5725 31.38 37.7625C31 38.1425 30.38 38.1425 30 37.7625L22.12 29.8825C21.12 30.1225 20.03 30.2625 18.99 30.2625C17.95 30.2625 17.04 30.1725 16.1 29.9825L8.31999 37.7625C7.93999 38.1425 7.31999 38.1425 6.93999 37.7625C6.74999 37.5725 6.60999 37.3325 6.60999 37.1025V32.1625L1.71999 32.0725C1.19999 32.0225 0.769989 31.6025 0.769989 31.0725C0.769989 30.7925 0.859989 30.5525 1.04999 30.4125L7.16999 24.3425C5.36999 21.8725 4.31999 18.8825 4.31999 15.6125C4.31999 11.5325 5.92999 7.88251 8.58999 5.22251C11.26 2.56251 14.91 0.952515 18.99 0.952515ZM19.85 6.74251L22.08 11.1525L26.92 11.9125C27.49 12.0025 27.82 12.4825 27.77 13.0025C27.72 13.2425 27.63 13.4325 27.49 13.5725L23.98 17.0325L24.79 21.9225C24.84 22.4425 24.51 22.9225 23.98 23.0125C23.74 23.0625 23.51 23.0125 23.32 22.9225L19 20.6925L14.59 22.9225C14.12 23.1625 13.55 22.9725 13.26 22.4925C13.17 22.3025 13.17 22.1125 13.17 21.9225L13.98 17.0325L10.47 13.5725C10.09 13.1925 10.09 12.5725 10.47 12.1925C10.66 12.0025 10.85 11.9125 11.04 11.9125L15.88 11.1525L18.11 6.74251C18.35 6.27251 18.96 6.08251 19.44 6.31251C19.63 6.40251 19.77 6.55251 19.87 6.74251H19.85ZM20.56 12.4825L18.99 9.35251L17.38 12.4825C17.24 12.7625 17 12.9525 16.67 13.0025L13.21 13.5225L15.68 15.9925C15.92 16.2325 16.01 16.5125 15.96 16.8425L15.39 20.3025L18.52 18.6925C18.8 18.6025 19.14 18.5525 19.42 18.6925L22.55 20.3025L21.98 16.8825C21.93 16.5525 22.03 16.2225 22.26 15.9825L24.73 13.5125L21.31 12.9925C20.98 12.9425 20.69 12.7525 20.55 12.4725L20.56 12.4825ZM13.96 29.3725C11.92 28.6125 10.12 27.4725 8.59999 25.9525L8.45999 25.8125L4.04999 30.1825L7.55999 30.2725H7.60999C8.12999 30.2725 8.60999 30.7025 8.60999 31.2225V34.7325L13.97 29.3725H13.96ZM29.67 25.6325C29.58 25.7725 29.43 25.8725 29.34 25.9625C27.92 27.3825 26.16 28.5225 24.26 29.2825L29.72 34.7425V31.2325C29.72 30.7125 30.15 30.2825 30.72 30.2825H30.77L34.28 30.1925L29.68 25.6325H29.67ZM27.96 6.60251C25.63 4.32251 22.5 2.90251 18.99 2.90251C15.48 2.90251 12.3 4.32251 9.96999 6.60251C7.68999 8.93251 6.26999 12.1025 6.26999 15.6225C6.26999 19.1425 7.68999 22.3125 9.96999 24.5925C11.54 26.1625 13.53 27.3425 15.76 27.9125H15.81L15.95 27.9625C16.9 28.2025 17.94 28.2925 18.99 28.2925C22.45 28.2925 25.63 26.8725 27.96 24.5925C30.24 22.3125 31.66 19.1325 31.66 15.6225C31.66 12.1125 30.24 8.93251 27.96 6.60251Z" fill="#1D3753"/>
</svg>
