<svg width="20" height="21" viewBox="0 0 20 21" fill="none" xmlns="http://www.w3.org/2000/svg">
<g clip-path="url(#clip0_257_26500)">
<path d="M10.552 8.35109C10.552 9.117 11.1753 9.74035 11.9412 9.74035C12.537 9.74035 13.0662 9.36114 13.2573 8.79633L13.3529 8.51418L13.623 8.63924C13.8066 8.72429 14.0027 8.76731 14.2053 8.76731C14.3849 8.76731 14.5595 8.7333 14.7256 8.66626L15.0082 8.5522L15.0853 8.84686C15.3714 9.94546 16.3654 10.7129 17.502 10.7129C18.8791 10.7129 19.9997 9.59227 19.9997 8.21501C19.9997 7.10941 19.2583 6.12287 18.1968 5.8162L17.9947 5.75767L18.0042 5.54705C18.0057 5.51453 18.0067 5.48252 18.0067 5.4495C18.0067 4.26735 17.0452 3.30582 15.8631 3.30582C15.8221 3.30582 15.7786 3.30732 15.7256 3.31083L15.5565 3.32133L15.4744 3.17325C15.0963 2.49088 14.3774 2.06664 13.5985 2.06664C12.7736 2.06664 12.0127 2.54891 11.6595 3.29582L11.3429 3.96518L11.1583 3.24779C10.9147 2.30127 10.0612 1.64041 9.08225 1.64041C8.32937 1.64041 7.64553 2.02462 7.25233 2.66747L7.06074 2.98065L6.82112 2.70199C6.41291 2.22773 5.82062 1.95558 5.19631 1.95558C4.01422 1.95558 3.05273 2.91711 3.05273 4.09926C3.05273 5.28141 4.01422 6.24293 5.19631 6.24293C5.21882 6.24293 5.24133 6.24193 5.26334 6.24143L5.48495 6.23343L5.54098 6.43704C5.79611 7.36305 6.64553 8.0099 7.60701 8.0099C7.95018 8.0099 8.27835 7.93086 8.583 7.77477L8.70506 7.71224L8.82712 7.77477C9.13177 7.93086 9.45994 8.0099 9.80311 8.0099C9.94868 8.0099 10.0938 7.99539 10.2353 7.96638L10.5815 7.89584L10.556 8.24803C10.553 8.28705 10.552 8.31907 10.552 8.34909V8.35109Z" fill="#2A2829"/>
<path d="M10.5517 8.35108C10.5517 9.117 11.175 9.74034 11.9409 9.74034C12.4867 9.74034 12.9749 9.42166 13.2006 8.9349C12.4407 7.88682 11.2901 7.13991 9.96294 6.90829C9.67679 6.85826 9.38265 6.83224 9.082 6.83224C8.78135 6.83224 8.4872 6.85826 8.20106 6.90829C7.53722 7.02435 6.91741 7.26948 6.36914 7.61617C6.72282 7.86681 7.15253 8.01139 7.60726 8.01139C7.95043 8.01139 8.2786 7.93235 8.58325 7.77626L8.70531 7.71373L8.82737 7.77626C9.13202 7.93235 9.46019 8.01139 9.80336 8.01139C9.94893 8.01139 10.094 7.99688 10.2356 7.96787L10.5817 7.89733L10.5562 8.24952C10.5532 8.28854 10.5522 8.32056 10.5522 8.35058L10.5517 8.35108Z" fill="#2A2829"/>
<path d="M13.5733 9.53122C13.5578 9.5017 13.5413 9.47268 13.5253 9.44367C13.1726 9.95545 12.5853 10.2756 11.9415 10.2756C10.9435 10.2756 10.1201 9.5117 10.026 8.53817C9.952 8.54417 9.87796 8.54718 9.80393 8.54718C9.42073 8.54718 9.05205 8.46813 8.70588 8.31155C8.3597 8.46763 7.99102 8.54718 7.60783 8.54718C6.97501 8.54718 6.38121 8.32255 5.91398 7.94135C5.37221 8.37408 4.91998 8.91488 4.59182 9.53172C4.31918 10.0445 4.13159 10.6093 4.04805 11.2071C4.01553 11.4393 3.99902 11.6759 3.99902 11.917C3.99902 13.2898 4.5428 14.5355 5.42724 15.4505C5.83594 15.8737 6.31768 16.2259 6.85195 16.487C7.52579 16.8167 8.28267 17.0018 9.08307 17.0018C9.88347 17.0018 10.6408 16.8167 11.3147 16.487C11.8489 16.2259 12.3302 15.8737 12.7394 15.4505C13.6233 14.536 14.1676 13.2903 14.1676 11.917C14.1676 11.6759 14.1511 11.4393 14.1186 11.2071C14.035 10.6088 13.8474 10.044 13.5748 9.53172L13.5733 9.53122Z" fill="#2A2829"/>
<path d="M7.39275 3.68653L7.16613 2.98865L5.38574 3.56696L5.61236 4.26435C6.17514 4.00871 6.77143 3.8131 7.39275 3.68603V3.68653Z" fill="#2A2829"/>
<path d="M9.08343 3.51643C9.39959 3.51643 9.71224 3.53394 10.0194 3.56796V2.83356H8.14746V3.56796C8.45461 3.53394 8.76677 3.51643 9.08343 3.51643Z" fill="#2A2829"/>
<path d="M0.682841 11.917C0.682841 11.6009 0.70035 11.2882 0.734367 10.981H0V12.853H0.734367C0.70035 12.5459 0.682841 12.2337 0.682841 11.917Z" fill="#2A2829"/>
<path d="M2.87942 6.25292L2.28462 5.82068L1.18457 7.33501L1.77837 7.76624C2.08902 7.22045 2.45921 6.71317 2.87992 6.25242L2.87942 6.25292Z" fill="#2A2829"/>
<path d="M17.3131 10.2266L18.011 9.99999L17.4327 8.21951L16.7354 8.44614C16.991 9.00895 17.1866 9.60527 17.3136 10.2266H17.3131Z" fill="#2A2829"/>
<path d="M14.7467 5.71315L15.1789 5.11832L13.6646 4.01822L13.2334 4.61204C13.7792 4.92271 14.2864 5.29292 14.7467 5.71365V5.71315Z" fill="#2A2829"/>
<path d="M16.3882 7.76624L16.982 7.33501L15.8819 5.82068L15.2871 6.25292C15.7078 6.71317 16.0775 7.22095 16.3887 7.76674L16.3882 7.76624Z" fill="#2A2829"/>
<path d="M1.43091 8.44614L0.733563 8.21951L0.155273 9.99999L0.853122 10.2266C0.980186 9.60527 1.17528 9.00945 1.43141 8.44614H1.43091Z" fill="#2A2829"/>
<path d="M10.7725 20.147L10.9991 20.8449L12.7795 20.2666L12.5529 19.5692C11.9901 19.8249 11.3938 20.0205 10.7725 20.1475V20.147Z" fill="#2A2829"/>
<path d="M15.2857 17.5807L15.8805 18.0129L16.9805 16.4986L16.3867 16.0673C16.0761 16.6131 15.7059 17.1204 15.2852 17.5811L15.2857 17.5807Z" fill="#2A2829"/>
<path d="M13.2334 19.2215L13.6646 19.8154L15.1789 18.7152L14.7467 18.1204C14.2864 18.5412 13.7787 18.9114 13.2334 19.222V19.2215Z" fill="#2A2829"/>
<path d="M17.4316 10.981C17.4657 11.2882 17.4832 11.6004 17.4832 11.917C17.4832 12.2337 17.4657 12.5459 17.4316 12.853H18.166V10.981H17.4316Z" fill="#2A2829"/>
<path d="M16.7349 15.3874L17.4322 15.6141L18.0105 13.8336L17.3127 13.607C17.1856 14.2283 16.9905 14.8241 16.7344 15.3874H16.7349Z" fill="#2A2829"/>
<path d="M5.61236 19.5687L5.38574 20.2661L7.16613 20.8444L7.39275 20.1466C6.77143 20.0195 6.17564 19.8244 5.61236 19.5682V19.5687Z" fill="#2A2829"/>
<path d="M1.77837 16.0673L1.18457 16.4985L2.28462 18.0129L2.87942 17.5806C2.45871 17.1204 2.08902 16.6126 1.77787 16.0668L1.77837 16.0673Z" fill="#2A2829"/>
<path d="M9.08343 20.3171C8.76727 20.3171 8.45461 20.2996 8.14746 20.2656V21H10.0194V20.2656C9.71224 20.2996 9.40009 20.3171 9.08343 20.3171Z" fill="#2A2829"/>
<path d="M3.41952 18.1204L2.9873 18.7153L4.50156 19.8154L4.93278 19.2215C4.387 18.9109 3.87975 18.5407 3.41902 18.1199L3.41952 18.1204Z" fill="#2A2829"/>
<path d="M0.853122 13.607L0.155273 13.8336L0.733563 15.6141L1.43091 15.3874C1.17528 14.8246 0.979686 14.2283 0.852622 13.607H0.853122Z" fill="#2A2829"/>
<path d="M9.08266 12.7265C9.67197 12.7265 10.1497 12.2487 10.1497 11.6594C10.1497 11.0701 9.67197 10.5923 9.08266 10.5923C8.49335 10.5923 8.01562 11.0701 8.01562 11.6594C8.01562 12.2487 8.49335 12.7265 9.08266 12.7265Z" fill="black"/>
<path d="M11.6051 1.91736C11.7553 1.76712 11.7553 1.52353 11.6051 1.37329C11.4549 1.22305 11.2113 1.22305 11.0611 1.37329C10.9108 1.52353 10.9108 1.76712 11.0611 1.91736C11.2113 2.0676 11.4549 2.0676 11.6051 1.91736Z" fill="#2A2829"/>
<path d="M16.7881 2.1749C16.8572 1.88206 16.6758 1.58864 16.383 1.51952C16.0902 1.4504 15.7968 1.63177 15.7277 1.9246C15.6586 2.21744 15.8399 2.51086 16.1327 2.57998C16.4256 2.6491 16.719 2.46773 16.7881 2.1749Z" fill="#2A2829"/>
<path d="M7.58008 0.669952C7.64919 0.377114 7.46784 0.083692 7.17502 0.014576C6.88219 -0.0545401 6.58878 0.126822 6.51967 0.41966C6.45056 0.712498 6.63191 1.00592 6.92474 1.07504C7.21756 1.14415 7.51097 0.962789 7.58008 0.669952Z" fill="#2A2829"/>
<path d="M15.009 8.55218L15.086 8.84684C15.3632 9.91142 16.3047 10.6648 17.3967 10.7109C16.923 7.41655 14.5388 4.74009 11.4032 3.8411L11.3442 3.96667L11.3047 3.81408C10.5973 3.62048 9.85242 3.51642 9.08354 3.51642C6.9935 3.51642 5.08254 4.27984 3.6123 5.54303C4.0045 5.97376 4.56978 6.24491 5.1971 6.24491C5.21961 6.24491 5.24212 6.24391 5.26413 6.24341L5.48574 6.23541L5.54177 6.43902C5.57929 6.57509 5.62981 6.70466 5.69134 6.82723C6.66183 6.17888 7.82841 5.80067 9.08304 5.80067C11.3067 5.80067 13.2531 6.98732 14.3237 8.76229C14.4622 8.75078 14.5973 8.71877 14.7269 8.66624L15.0095 8.55218H15.009Z" fill="#2A2829"/>
<path d="M14.6516 9.25055C14.6326 9.25505 14.6136 9.25805 14.5945 9.26206C14.9817 10.065 15.1989 10.9655 15.1989 11.9165C15.1989 15.2944 12.4605 18.0324 9.08329 18.0324C5.70611 18.0324 2.96774 15.2939 2.96774 11.9165C2.96774 9.98795 3.86068 8.26801 5.25538 7.1474C5.19135 7.02933 5.13532 6.90627 5.0888 6.7777C4.34893 6.74818 3.68609 6.4165 3.21886 5.90372C1.65508 7.42955 0.683594 9.55922 0.683594 11.9165C0.683594 16.5561 4.44447 20.3171 9.08379 20.3171C13.7231 20.3171 17.484 16.5561 17.484 11.9165C17.484 11.6914 17.475 11.4683 17.4575 11.2471C16.1908 11.2281 15.0778 10.4252 14.6521 9.25055H14.6516Z" fill="#2A2829"/>
<path d="M14.9614 6.45361C15.1577 6.37231 15.2509 6.14726 15.1696 5.95097C15.0883 5.75467 14.8632 5.66145 14.6669 5.74276C14.4706 5.82407 14.3774 6.04911 14.4587 6.24541C14.54 6.44171 14.7651 6.53492 14.9614 6.45361Z" fill="white"/>
<path d="M7.30121 5.00485C7.49749 4.92354 7.59071 4.6985 7.5094 4.5022C7.4281 4.30591 7.20306 4.21269 7.00678 4.294C6.81049 4.37531 6.71728 4.60035 6.79858 4.79665C6.87989 4.99295 7.10492 5.08616 7.30121 5.00485Z" fill="white"/>
<path d="M9.20668 4.67474C9.35691 4.5245 9.35691 4.28092 9.20668 4.13068C9.05645 3.98044 8.81288 3.98044 8.66264 4.13068C8.51241 4.28092 8.51241 4.5245 8.66264 4.67474C8.81288 4.82498 9.05645 4.82498 9.20668 4.67474Z" fill="white"/>
<path d="M17.9709 8.74857C18.0489 8.41782 17.8441 8.08641 17.5134 8.00834C17.1826 7.93028 16.8512 8.13512 16.7732 8.46588C16.6951 8.79663 16.9 9.12804 17.2307 9.20611C17.5614 9.28417 17.8928 9.07933 17.9709 8.74857Z" fill="white"/>
<path d="M13.5741 9.53123H12.6742C12.4591 9.6648 12.2074 9.74034 11.9418 9.74034C11.6762 9.74034 11.423 9.6638 11.2099 9.53123H10.8157L10.3035 7.95437L10.2359 7.96837C10.0949 7.99739 9.9493 8.0119 9.80373 8.0119C9.46056 8.0119 9.13239 7.93285 8.82774 7.77677L8.70568 7.71423L8.58362 7.77677C8.351 7.89583 8.10438 7.96987 7.84775 7.99839L7.3495 9.53123H4.59162C4.31899 10.044 4.13139 10.6088 4.04785 11.2066L6.27897 12.8275L5.42704 15.4495C5.83575 15.8727 6.31749 16.2249 6.85175 16.486L9.08287 14.8647L11.3145 16.486C11.8488 16.2249 12.33 15.8727 12.7392 15.4495L11.8873 12.8275L14.1184 11.2066C14.0348 10.6083 13.8473 10.0435 13.5746 9.53123H13.5741Z" fill="white"/>
</g>
<defs>
<clipPath id="clip0_257_26500">
<rect width="20" height="21" fill="white"/>
</clipPath>
</defs>
</svg>
