<svg width="32" height="32" viewBox="0 0 32 32" fill="none" xmlns="http://www.w3.org/2000/svg">
<path d="M16 0C24.8366 0 32 7.16344 32 16C32 24.8366 24.8366 32 16 32C7.16344 32 0 24.8366 0 16C0 7.16344 7.16344 0 16 0Z" fill="#D1D5DB"/>
<path d="M16 0C24.8366 0 32 7.16344 32 16C32 24.8366 24.8366 32 16 32C7.16344 32 0 24.8366 0 16C0 7.16344 7.16344 0 16 0Z" stroke="#E5E7EB"/>
<path d="M19.3643 18.861V19.9H12.8496V18.9908L16.1104 15.361C16.5114 14.9143 16.8213 14.5361 17.04 14.2262C17.2633 13.9117 17.4183 13.6315 17.5049 13.3854C17.596 13.1347 17.6416 12.8795 17.6416 12.6198C17.6416 12.2916 17.5732 11.9954 17.4365 11.7311C17.3044 11.4622 17.1084 11.248 16.8486 11.0885C16.5889 10.929 16.2744 10.8492 15.9053 10.8492C15.4632 10.8492 15.0941 10.9358 14.7979 11.109C14.5062 11.2776 14.2874 11.5146 14.1416 11.8199C13.9958 12.1253 13.9229 12.4762 13.9229 12.8727H12.6582C12.6582 12.3121 12.7812 11.7994 13.0273 11.3346C13.2734 10.8698 13.638 10.5006 14.1211 10.2272C14.6042 9.94918 15.1989 9.81018 15.9053 9.81018C16.5342 9.81018 17.0719 9.92183 17.5186 10.1451C17.9652 10.3639 18.307 10.6738 18.5439 11.0748C18.7855 11.4713 18.9062 11.9362 18.9062 12.4694C18.9062 12.761 18.8561 13.0573 18.7559 13.358C18.6602 13.6543 18.5257 13.9505 18.3525 14.2467C18.1839 14.5429 17.9857 14.8346 17.7578 15.1217C17.5345 15.4088 17.2952 15.6914 17.04 15.9694L14.374 18.861H19.3643Z" fill="white"/>
</svg>
