<svg width="82" height="56" viewBox="0 0 82 56" fill="none" xmlns="http://www.w3.org/2000/svg">
<g clip-path="url(#clip0_600_3987)">
<path fill-rule="evenodd" clip-rule="evenodd" d="M57.7129 39.8357C55.3824 39.8357 53.0391 39.8357 50.7085 39.8357C50.0372 39.8357 49.6699 40.1127 49.6699 40.602C49.6699 42.3191 49.6699 44.0271 49.6699 45.7443C49.6699 46.2428 50.0246 46.4921 50.7212 46.5013C51.8992 46.5013 53.0771 46.5013 54.2424 46.5013C55.4077 46.5013 56.5603 46.5013 57.7256 46.5013C58.4349 46.5013 58.8022 46.2428 58.8149 45.7258C58.8149 44.0271 58.8149 42.3191 58.8149 40.6204C58.8149 40.1127 58.4222 39.8357 57.7256 39.8357H57.7129Z" fill="#1D3753"/>
<path fill-rule="evenodd" clip-rule="evenodd" d="M50.7085 37.1583C53.0391 37.1583 55.3824 37.1583 57.7129 37.1583C58.4096 37.1583 58.7895 36.8906 58.8022 36.3828C58.8022 34.6841 58.8022 32.9762 58.8022 31.2775C58.8022 30.7697 58.4096 30.502 57.7256 30.502C55.4077 30.502 53.0898 30.502 50.7719 30.502C50.0246 30.502 49.6826 30.7605 49.6699 31.2959C49.6699 32.1545 49.6699 33.0131 49.6699 33.8717C49.6699 34.7303 49.6699 35.5612 49.6699 36.4105C49.6699 36.9091 50.0372 37.1676 50.7085 37.1676V37.1583Z" fill="#1D3753"/>
<path fill-rule="evenodd" clip-rule="evenodd" d="M50.7086 27.8153C53.0392 27.8153 55.3824 27.8153 57.713 27.8153C58.397 27.8153 58.7896 27.5383 58.8023 27.0305C58.8023 25.3318 58.8023 23.6239 58.8023 21.9252C58.8023 21.4082 58.4223 21.1497 57.713 21.1497C56.5477 21.1497 55.3951 21.1497 54.2298 21.1497C53.0645 21.1497 51.8739 21.1497 50.7086 21.1497C50.0247 21.1497 49.67 21.4082 49.6573 21.9067C49.6573 23.6239 49.6573 25.3318 49.6573 27.049C49.6573 27.5383 50.0247 27.8153 50.7086 27.8153Z" fill="#1D3753"/>
<path fill-rule="evenodd" clip-rule="evenodd" d="M44.8821 30.4927C42.5515 30.4927 40.2083 30.4927 37.8777 30.4927C37.1938 30.4927 36.8391 30.7512 36.8391 31.2497C36.8391 32.1083 36.8391 32.9669 36.8391 33.8255C36.8391 34.6841 36.8391 35.5427 36.8391 36.4013C36.8391 36.8998 37.1938 37.1583 37.8777 37.1583C40.2083 37.1583 42.5515 37.1583 44.8821 37.1583C45.5534 37.1583 45.9587 36.8998 45.9714 36.4197C45.9841 34.6933 45.9841 32.9669 45.9714 31.2405C45.9714 30.7604 45.5534 30.5019 44.8821 30.5019V30.4927Z" fill="#1D3753"/>
<path fill-rule="evenodd" clip-rule="evenodd" d="M31.7093 30.4927C30.544 30.4927 29.3914 30.4927 28.2261 30.4927C27.0609 30.4927 25.8702 30.4927 24.705 30.4927C24.059 30.4927 23.6663 30.7512 23.6537 31.222C23.641 32.9577 23.641 34.6933 23.6537 36.4382C23.6537 36.909 24.0463 37.1583 24.705 37.1583C27.0355 37.1583 29.3788 37.1583 31.7093 37.1583C32.406 37.1583 32.7733 36.8906 32.7733 36.3828C32.7733 34.6841 32.7733 32.9761 32.7733 31.2774C32.7733 30.7604 32.4186 30.5019 31.7093 30.5019V30.4927Z" fill="#1D3753"/>
<path fill-rule="evenodd" clip-rule="evenodd" d="M19.0432 39.8357C16.7379 39.8357 14.4454 39.8357 12.1401 39.8357C11.4055 39.8357 11.0255 40.1034 11.0255 40.6297C11.0255 42.3284 11.0255 44.0363 11.0255 45.735C11.0255 46.252 11.3928 46.5013 12.1148 46.5013C13.2674 46.5013 14.4327 46.5013 15.598 46.5013C16.7633 46.5013 17.9159 46.5013 19.0812 46.5013C19.8158 46.5013 20.1705 46.2428 20.1705 45.7074C20.1705 44.0179 20.1705 42.3284 20.1705 40.6389C20.1705 40.1127 19.7905 39.8449 19.0558 39.8449L19.0432 39.8357Z" fill="#1D3753"/>
<path fill-rule="evenodd" clip-rule="evenodd" d="M63.5774 27.8153C65.8953 27.8153 68.2132 27.8153 70.5311 27.8153C71.2277 27.8153 71.6204 27.5383 71.633 27.0398C71.633 25.3226 71.633 23.6146 71.633 21.8975C71.633 21.3989 71.253 21.1497 70.5691 21.1497C69.4038 21.1497 68.2512 21.1497 67.0859 21.1497C65.9206 21.1497 64.73 21.1497 63.5647 21.1497C62.8554 21.1497 62.5007 21.4082 62.5007 21.9344C62.5007 23.6331 62.5007 25.3411 62.5007 27.0398C62.5007 27.5475 62.8934 27.8153 63.59 27.8153H63.5774Z" fill="#1D3753"/>
<path fill-rule="evenodd" clip-rule="evenodd" d="M37.9664 27.8153C40.2463 27.8153 42.5389 27.8153 44.8188 27.8153C45.5661 27.8153 45.9714 27.5475 45.9714 27.0029C45.9714 25.3134 45.9714 23.6239 45.9714 21.9344C45.9714 21.4174 45.5914 21.1497 44.8948 21.1497C42.5642 21.1497 40.221 21.1497 37.8904 21.1497C37.1684 21.1497 36.8391 21.3989 36.8391 21.9344C36.8391 22.7745 36.8391 23.6239 36.8391 24.4732C36.8391 25.3226 36.8391 26.1627 36.8391 27.0121C36.8391 27.566 37.1938 27.8245 37.9664 27.8245V27.8153Z" fill="#1D3753"/>
<path fill-rule="evenodd" clip-rule="evenodd" d="M31.722 39.8357C29.3914 39.8357 27.0482 39.8357 24.7176 39.8357C24.0463 39.8357 23.6664 40.1034 23.6537 40.5927C23.6537 42.3099 23.6537 44.0179 23.6537 45.735C23.6537 46.252 24.021 46.5013 24.743 46.5013C25.8956 46.5013 27.0609 46.5013 28.2135 46.5013C29.3661 46.5013 30.5314 46.5013 31.6967 46.5013C32.4187 46.5013 32.7733 46.252 32.7733 45.735C32.7733 44.0363 32.7733 42.3284 32.7733 40.6297C32.7733 40.1127 32.4187 39.8449 31.7094 39.8357H31.722Z" fill="#1D3753"/>
<path fill-rule="evenodd" clip-rule="evenodd" d="M44.9581 39.8447C42.5896 39.8447 40.221 39.8447 37.8524 39.8447C37.2065 39.8447 36.8518 40.1217 36.8518 40.5925C36.8518 41.4511 36.8518 42.3097 36.8518 43.1683C36.8518 44.0269 36.8518 44.8855 36.8518 45.7348C36.8518 46.2611 37.1938 46.5011 37.9158 46.5011C40.2463 46.5011 42.5896 46.5011 44.9201 46.5011C45.5661 46.5011 45.9714 46.2426 45.9714 45.781C45.9841 44.0454 45.9841 42.3005 45.9714 40.5648C45.9714 40.1217 45.5534 39.8447 44.9581 39.8447Z" fill="#1D3753"/>
<path fill-rule="evenodd" clip-rule="evenodd" d="M24.7683 27.8153C27.0735 27.8153 29.3661 27.8153 31.6713 27.8153C32.4186 27.8153 32.7733 27.5568 32.7733 27.0213C32.7733 25.3226 32.7733 23.6146 32.7733 21.9159C32.7733 21.3989 32.4186 21.1497 31.6967 21.1497C30.5314 21.1497 29.3788 21.1497 28.2135 21.1497C27.0482 21.1497 25.9336 21.1497 24.7809 21.1497C23.9956 21.1497 23.641 21.3897 23.641 21.9529C23.641 23.6423 23.641 25.3318 23.641 27.0213C23.641 27.5475 24.021 27.8153 24.7556 27.8153H24.7683Z" fill="#1D3753"/>
<path fill-rule="evenodd" clip-rule="evenodd" d="M63.5648 37.1583C64.7301 37.1583 65.8827 37.1583 67.048 37.1583C68.2133 37.1583 69.3659 37.1583 70.5185 37.1583C71.2278 37.1583 71.6205 36.8998 71.6205 36.4013C71.6205 34.6841 71.6205 32.9762 71.6205 31.259C71.6205 30.7697 71.2278 30.502 70.5692 30.502C68.2386 30.502 65.8954 30.502 63.5648 30.502C62.8681 30.502 62.4882 30.7697 62.4882 31.2775C62.4882 32.9762 62.4882 34.6841 62.4882 36.3828C62.4882 36.8998 62.8681 37.1583 63.5648 37.1583Z" fill="#1D3753"/>
<path fill-rule="evenodd" clip-rule="evenodd" d="M12.1149 37.1583C14.4201 37.1583 16.7127 37.1583 19.0179 37.1583C19.7779 37.1583 20.1452 36.8998 20.1452 36.3459C20.1452 34.6657 20.1452 32.9946 20.1452 31.3144C20.1452 30.7605 19.7779 30.502 19.0179 30.502C17.878 30.502 16.738 30.502 15.5854 30.502C14.4328 30.502 13.2675 30.502 12.1022 30.502C11.3676 30.502 11.0002 30.7605 11.0002 31.2959C11.0002 32.9854 11.0002 34.6749 11.0002 36.3644C11.0002 36.8998 11.3676 37.1583 12.1022 37.1583H12.1149Z" fill="#1D3753"/>
<path fill-rule="evenodd" clip-rule="evenodd" d="M81.5 6.02741C81.5 5.81507 81.5 5.58426 81.4366 5.38116C80.9933 3.97787 79.562 3.14697 77.5481 3.14697C75.2429 3.14697 72.7983 3.14697 70.4931 3.14697C70.4931 3.14697 70.3664 3.14697 70.3664 3.16544V4.08865C70.3664 6.12896 68.3398 7.9477 65.5533 7.9477H56.687C53.8878 7.9477 51.3672 6.11973 51.3672 4.08865V3.16544V3.14697H29.8347V4.08865C29.8347 6.12896 27.8082 7.9477 25.0216 7.9477H16.1553C13.3561 7.9477 10.8355 6.11973 10.8355 4.08865V3.16544C9.56891 3.16544 6.66836 3.1562 4.52778 3.16544C4.13513 3.16544 3.79315 3.1839 3.41316 3.24853C1.6779 3.54396 0.588613 4.60565 0.512616 5.99971C0.474617 6.79368 0.512616 7.59688 0.512616 8.39084C0.512616 23.07 0.512616 37.7491 0.512616 52.4283C0.512616 54.3024 2.38721 55.4472 4.60378 55.4472C28.8974 55.4287 53.2038 55.438 77.4975 55.438C79.8534 55.438 81.4746 54.2747 81.4746 52.5667C81.4746 37.0567 81.4746 21.5374 81.4746 6.02741H81.5ZM77.9661 15.555C77.9661 27.3999 77.8521 39.2355 77.8394 51.0804C77.8394 52.4929 77.5608 52.6683 75.5975 52.6683C52.6085 52.6683 29.5941 52.6683 6.60503 52.6683C6.22505 52.6683 5.8324 52.6221 5.45241 52.6037C4.80644 52.576 4.54045 52.2713 4.45179 51.8559C4.40112 51.5974 4.42645 51.3296 4.42645 51.0619C4.42645 39.2355 4.48979 27.3999 4.48979 15.5735V15.3242H77.9534V15.555H77.9661Z" fill="#1D3753"/>
<path d="M24.7683 0.552734H15.902C13.8034 0.552734 12.1022 1.79275 12.1022 3.32238V4.2456C12.1022 5.77524 13.8034 7.01525 15.902 7.01525H24.7683C26.8669 7.01525 28.5682 5.77524 28.5682 4.2456V3.32238C28.5682 1.79275 26.8669 0.552734 24.7683 0.552734Z" fill="#1D3753"/>
<path d="M65.3001 0.552734H56.4338C54.3352 0.552734 52.6339 1.79275 52.6339 3.32238V4.2456C52.6339 5.77524 54.3352 7.01525 56.4338 7.01525H65.3001C67.3987 7.01525 69.0999 5.77524 69.0999 4.2456V3.32238C69.0999 1.79275 67.3987 0.552734 65.3001 0.552734Z" fill="#1D3753"/>
</g>
<path d="M81 1.05273V54.9473H1V1.05273H81Z" stroke="#1D3753"/>
<defs>
<clipPath id="clip0_600_3987">
<path d="M0.5 0.552734H81.5V55.4472H0.5V0.552734Z" fill="white"/>
</clipPath>
</defs>
</svg>
