<svg width="90" height="68" viewBox="0 0 90 68" fill="none" xmlns="http://www.w3.org/2000/svg">
<g clip-path="url(#clip0_600_3822)">
<path d="M65.4952 17.0427L63.3848 11.3537H26.7393L24.5048 17.0427H65.4952ZM8.11862 59.4298V60.3576C8.11862 61.1634 8.46621 61.8715 8.93793 62.433C9.40966 62.897 10.0055 63.2388 10.5766 63.2388H13.8786C14.4745 63.2388 15.0455 62.897 15.5172 62.433C15.989 61.847 16.3366 61.1634 16.3366 60.3576V59.4298H8.09379H8.11862ZM3.30207 60.3576V58.8438C2.70621 58.502 2.23448 58.1602 1.76276 57.6962C0.695172 56.7684 0 55.2546 0 53.7652V36.0388C0 34.647 0.347586 33.3774 0.81931 32.2054C1.41517 31.1555 2.23448 30.13 3.17793 29.2998L6.70345 26.2966L6.00828 26.1745C4.71724 25.8327 3.52552 25.1246 2.70621 24.1968C1.8869 23.1469 1.41517 21.9993 1.41517 20.6075V19.5576C1.41517 18.9716 1.53931 18.5077 1.76276 18.0438C1.98621 17.5799 2.23448 17.116 2.70621 16.7742C3.05379 16.3102 3.52552 16.0905 3.99724 15.8463C4.46897 15.6022 4.94069 15.6022 5.53655 15.6022H12.3641L16.9572 3.5404C17.429 2.49049 18.1241 1.56266 19.0676 1.00108C20.011 0.31742 21.0786 -0.0488281 22.2455 -0.0488281H67.829C68.9959 -0.0488281 70.0635 0.293003 71.0069 1.00108C71.9503 1.58708 72.6455 2.51491 73.1172 3.5404L77.7103 15.6022H84.5379C85.1338 15.6022 85.6055 15.6022 86.0772 15.8463C86.549 16.0661 87.0207 16.3102 87.3683 16.7742C87.84 17.116 88.0635 17.5799 88.3117 18.0438C88.56 18.5077 88.56 18.9716 88.56 19.5576V20.6075C88.56 21.9993 88.0883 23.1469 87.3931 24.1968C86.5738 25.1246 85.3821 25.8083 84.091 26.1745L83.2717 26.2966L86.7972 29.2998C87.8648 30.1056 88.6841 31.1555 89.1559 32.2054C89.7517 33.353 89.9752 34.647 89.9752 36.0388V53.7652C89.9752 55.279 89.3793 56.6707 88.3366 57.6962C87.8648 58.1602 87.3931 58.502 86.7972 58.8438V60.3576C86.7972 62.3354 85.9779 64.2887 84.6869 65.6804C83.3959 67.0722 81.509 68 79.4979 68H76.1959C74.0855 68 72.2979 67.0722 70.8828 65.6804C69.5917 64.2887 68.8717 62.311 68.8717 60.3576V59.4298H21.2028V60.3576C21.2028 62.3354 20.3834 64.2887 19.1917 65.6804C17.7766 67.0722 15.8897 68 13.8786 68H10.5766C8.56552 68 6.67862 67.0722 5.38759 65.6804C4.09655 64.2887 3.27724 62.311 3.27724 60.3576H3.30207ZM82.0055 60.3576V59.4298H73.7628V60.3576C73.7628 61.1634 73.9862 61.8715 74.5821 62.433C74.9297 62.897 75.5255 63.2388 76.2207 63.2388H79.5228C80.1186 63.2388 80.6897 62.897 81.1614 62.433C81.6331 61.847 81.9807 61.1634 81.9807 60.3576H82.0055ZM27.6828 41.1418L14.7228 38.6025V42.1918H27.6828V41.1418ZM12.8359 33.2553L29.3214 36.6248C30.2648 36.8445 30.96 37.3084 31.5559 38.0165C32.1517 38.7002 32.4993 39.628 32.4993 40.5558V44.4869C32.4993 45.8786 31.4317 46.9286 30.0166 46.9286H13.8786C12.811 46.9286 11.7683 46.4646 11.0483 45.6589C10.3531 44.9752 9.88138 44.0474 9.88138 42.8754V35.5749V35.111C10.229 33.8413 11.52 33.0356 12.8359 33.2553ZM60.8028 36.6248L77.2883 33.2553C78.5793 33.0356 79.8704 33.8413 80.1186 35.111C80.2428 35.233 80.2428 35.4528 80.2428 35.5749V42.8754C80.2428 44.023 79.771 44.9508 79.0759 45.6589C78.3807 46.4646 77.3131 46.9286 76.1214 46.9286H59.9835C58.6924 46.9286 57.6248 45.8786 57.6248 44.4869V40.5558C57.6248 39.628 57.9724 38.7002 58.5683 38.0165C59.04 37.3329 59.8593 36.8689 60.8028 36.6248ZM75.4014 38.5781L62.4414 41.1174V42.1673H75.4014V38.5781ZM39.6993 54.5709H84.3393C84.5628 54.5709 84.811 54.5709 84.9352 54.3512C84.9352 54.3512 85.1586 54.0093 85.1586 53.7652V36.0388C85.1586 35.3551 85.0345 34.7691 84.811 34.3052C84.5628 33.7192 84.2152 33.2553 83.7435 32.9135L77.611 27.8104C77.2635 27.5663 77.0152 27.2244 76.9159 26.8826L76.4441 25.6129C75.9724 24.4654 76.5683 23.0736 77.8593 22.6097C77.9835 22.4876 78.2069 22.4876 78.331 22.4876L83.1724 21.4377C83.1724 21.4377 83.52 21.3156 83.6441 21.1935C83.7683 21.0715 83.7683 20.8517 83.7683 20.6075V20.3878H76.1214C75.0538 20.3878 74.2345 19.7041 73.8869 18.874L68.5738 5.32281C68.5738 5.10306 68.4497 4.98097 68.3504 4.98097C68.2262 4.85889 68.0028 4.76123 67.8786 4.76123H22.2703C22.2703 4.76123 21.9228 4.88331 21.7986 4.98097C21.6745 4.98097 21.5752 5.10306 21.5752 5.32281L16.2621 18.874C15.9145 19.8018 14.8469 20.4855 13.7793 20.3878H6.35586V20.6075C6.35586 20.8517 6.35586 21.0715 6.48 21.1935C6.60414 21.3156 6.70345 21.4377 6.95172 21.4377L11.8924 22.4876C13.1834 22.7074 14.0028 24.0014 13.7793 25.2711C13.6552 25.3932 13.6552 25.4909 13.6552 25.6129L13.1834 26.8826C12.96 27.2244 12.7117 27.5663 12.3641 27.9325L6.35586 32.9135C5.88414 33.2553 5.53655 33.7192 5.28828 34.3052C5.06483 34.7691 4.94069 35.3551 4.94069 36.0388V53.7652C4.94069 53.9849 4.94069 54.2291 5.18897 54.3512C5.3131 54.5709 5.53655 54.5709 5.78483 54.5709H39.7241H39.6993ZM67.2828 8.10629L71.28 18.4101C71.4041 18.7519 71.5035 19.0937 71.5035 19.46C71.5035 20.7296 70.4359 21.7795 69.0207 21.7795H20.9793C20.731 21.7795 20.5076 21.7795 20.16 21.6575C18.9931 21.1935 18.2731 19.8018 18.7448 18.5321L22.7421 8.22837C23.0897 7.30054 24.0331 6.61688 25.1007 6.61688H65.0483C65.9917 6.61688 66.9352 7.20288 67.2828 8.13071V8.10629Z" fill="#1D3753"/>
</g>
<defs>
<clipPath id="clip0_600_3822">
<rect width="90" height="68" fill="white"/>
</clipPath>
</defs>
</svg>
